<svg class="marks" width="480" height="357" viewBox="0 0 480 357" version="1.1" xmlns="http://www.w3.org/2000/svg" xmlns:xlink="http://www.w3.org/1999/xlink"><rect width="480" height="357" style="fill: #ffe8d1;"></rect><g transform="translate(38,12)"><g class="mark-group role-frame root"><g transform="translate(0,0)"><path class="background" d="M0.5,0.5h404v321h-404Z" style="fill: none; stroke: #ddd;"></path><g><g class="mark-group role-axis"><g transform="translate(0.5,321.5)"><path class="background" d="M0,0h0v0h0Z" style="pointer-events: none; fill: none;"></path><g><g class="mark-rule role-axis-grid" style="pointer-events: none;"><line transform="translate(41,-321)" x2="0" y2="321" style="fill: none; stroke: #000000; stroke-opacity: 0.313384443288907; stroke-width: 1.1529370999571407; opacity: 1;"></line><line transform="translate(82,-321)" x2="0" y2="321" style="fill: none; stroke: #000000; stroke-opacity: 0.313384443288907; stroke-width: 1.1529370999571407; opacity: 1;"></line><line transform="translate(124,-321)" x2="0" y2="321" style="fill: none; stroke: #000000; stroke-opacity: 0.313384443288907; stroke-width: 1.1529370999571407; opacity: 1;"></line><line transform="translate(165,-321)" x2="0" y2="321" style="fill: none; stroke: #000000; stroke-opacity: 0.313384443288907; stroke-width: 1.1529370999571407; opacity: 1;"></line><line transform="translate(206,-321)" x2="0" y2="321" style="fill: none; stroke: #000000; stroke-opacity: 0.313384443288907; stroke-width: 1.1529370999571407; opacity: 1;"></line><line transform="translate(247,-321)" x2="0" y2="321" style="fill: none; stroke: #000000; stroke-opacity: 0.313384443288907; stroke-width: 1.1529370999571407; opacity: 1;"></line><line transform="translate(289,-321)" x2="0" y2="321" style="fill: none; stroke: #000000; stroke-opacity: 0.313384443288907; stroke-width: 1.1529370999571407; opacity: 1;"></line><line transform="translate(330,-321)" x2="0" y2="321" style="fill: none; stroke: #000000; stroke-opacity: 0.313384443288907; stroke-width: 1.1529370999571407; opacity: 1;"></line><line transform="translate(371,-321)" x2="0" y2="321" style="fill: none; stroke: #000000; stroke-opacity: 0.313384443288907; stroke-width: 1.1529370999571407; opacity: 1;"></line></g></g><path class="foreground" d="" style="pointer-events: none; display: none; fill: none;"></path></g></g><g class="mark-group role-axis"><g transform="translate(0.5,0.5)"><path class="background" d="M0,0h0v0h0Z" style="pointer-events: none; fill: none;"></path><g><g class="mark-rule role-axis-grid" style="pointer-events: none;"><line transform="translate(0,321)" x2="404" y2="0" style="fill: none; stroke: #000000; stroke-opacity: 0.7022595571815; stroke-width: 0.734742054782781; opacity: 1;"></line><line transform="translate(0,303)" x2="404" y2="0" style="fill: none; stroke: #000000; stroke-opacity: 0.7022595571815; stroke-width: 0.734742054782781; opacity: 1;"></line><line transform="translate(0,285)" x2="404" y2="0" style="fill: none; stroke: #000000; stroke-opacity: 0.7022595571815; stroke-width: 0.734742054782781; opacity: 1;"></line><line transform="translate(0,268)" x2="404" y2="0" style="fill: none; stroke: #000000; stroke-opacity: 0.7022595571815; stroke-width: 0.734742054782781; opacity: 1;"></line><line transform="translate(0,250)" x2="404" y2="0" style="fill: none; stroke: #000000; stroke-opacity: 0.7022595571815; stroke-width: 0.734742054782781; opacity: 1;"></line><line transform="translate(0,232)" x2="404" y2="0" style="fill: none; stroke: #000000; stroke-opacity: 0.7022595571815; stroke-width: 0.734742054782781; opacity: 1;"></line><line transform="translate(0,214)" x2="404" y2="0" style="fill: none; stroke: #000000; stroke-opacity: 0.7022595571815; stroke-width: 0.734742054782781; opacity: 1;"></line><line transform="translate(0,196)" x2="404" y2="0" style="fill: none; stroke: #000000; stroke-opacity: 0.7022595571815; stroke-width: 0.734742054782781; opacity: 1;"></line><line transform="translate(0,178)" x2="404" y2="0" style="fill: none; stroke: #000000; stroke-opacity: 0.7022595571815; stroke-width: 0.734742054782781; opacity: 1;"></line><line transform="translate(0,161)" x2="404" y2="0" style="fill: none; stroke: #000000; stroke-opacity: 0.7022595571815; stroke-width: 0.734742054782781; opacity: 1;"></line><line transform="translate(0,143)" x2="404" y2="0" style="fill: none; stroke: #000000; stroke-opacity: 0.7022595571815; stroke-width: 0.734742054782781; opacity: 1;"></line><line transform="translate(0,125)" x2="404" y2="0" style="fill: none; stroke: #000000; stroke-opacity: 0.7022595571815; stroke-width: 0.734742054782781; opacity: 1;"></line><line transform="translate(0,107)" x2="404" y2="0" style="fill: none; stroke: #000000; stroke-opacity: 0.7022595571815; stroke-width: 0.734742054782781; opacity: 1;"></line><line transform="translate(0,89)" x2="404" y2="0" style="fill: none; stroke: #000000; stroke-opacity: 0.7022595571815; stroke-width: 0.734742054782781; opacity: 1;"></line><line transform="translate(0,71)" x2="404" y2="0" style="fill: none; stroke: #000000; stroke-opacity: 0.7022595571815; stroke-width: 0.734742054782781; opacity: 1;"></line><line transform="translate(0,53)" x2="404" y2="0" style="fill: none; stroke: #000000; stroke-opacity: 0.7022595571815; stroke-width: 0.734742054782781; opacity: 1;"></line><line transform="translate(0,36)" x2="404" y2="0" style="fill: none; stroke: #000000; stroke-opacity: 0.7022595571815; stroke-width: 0.734742054782781; opacity: 1;"></line><line transform="translate(0,18)" x2="404" y2="0" style="fill: none; stroke: #000000; stroke-opacity: 0.7022595571815; stroke-width: 0.734742054782781; opacity: 1;"></line><line transform="translate(0,0)" x2="404" y2="0" style="fill: none; stroke: #000000; stroke-opacity: 0.7022595571815; stroke-width: 0.734742054782781; opacity: 1;"></line></g></g><path class="foreground" d="" style="pointer-events: none; display: none; fill: none;"></path></g></g><g class="mark-group role-axis"><g transform="translate(0.5,321.5)"><path class="background" d="M0,0h0v0h0Z" style="pointer-events: none; fill: none;"></path><g><g class="mark-text role-axis-label" style="pointer-events: none;"><text text-anchor="middle" transform="translate(41.215424838427296,16)" style="font-family: Verdana; font-size: 14px; fill: #000; opacity: 1;">1910</text><text text-anchor="middle" transform="translate(82.43461194613623,16)" style="font-family: Verdana; font-size: 14px; fill: #000; opacity: 1;">1920</text><text text-anchor="middle" transform="translate(123.66532100352015,16)" style="font-family: Verdana; font-size: 14px; fill: #000; opacity: 1;">1930</text><text text-anchor="middle" transform="translate(164.88474325305916,16)" style="font-family: Verdana; font-size: 14px; fill: #000; opacity: 1;">1940</text><text text-anchor="middle" transform="translate(206.11545231044312,16)" style="font-family: Verdana; font-size: 14px; fill: #000; opacity: 1;">1950</text><text text-anchor="middle" transform="translate(247.33510970181223,16)" style="font-family: Verdana; font-size: 14px; fill: #000; opacity: 1;">1960</text><text text-anchor="middle" transform="translate(288.56558361736603,16)" style="font-family: Verdana; font-size: 14px; fill: #000; opacity: 1;">1970</text><text text-anchor="middle" transform="translate(329.78500586690507,16)" style="font-family: Verdana; font-size: 14px; fill: #000; opacity: 1;">1980</text><text text-anchor="middle" transform="translate(371.015714924289,16)" style="font-family: Verdana; font-size: 14px; fill: #000; opacity: 1;">1990</text></g><g class="mark-rule role-axis-domain" style="pointer-events: none;"><line transform="translate(0,0)" x2="404" y2="0" style="fill: none; stroke: #888; stroke-width: 1; opacity: 1;"></line></g></g><path class="foreground" d="" style="pointer-events: none; display: none; fill: none;"></path></g></g><g class="mark-group role-axis"><g transform="translate(0.5,0.5)"><path class="background" d="M0,0h0v0h0Z" style="pointer-events: none; fill: none;"></path><g><g class="mark-rule role-axis-tick" style="pointer-events: none;"><line transform="translate(0,321)" x2="-5" y2="0" style="fill: none; stroke: #888; stroke-width: 1; opacity: 1;"></line><line transform="translate(0,303)" x2="-5" y2="0" style="fill: none; stroke: #888; stroke-width: 1; opacity: 1;"></line><line transform="translate(0,285)" x2="-5" y2="0" style="fill: none; stroke: #888; stroke-width: 1; opacity: 1;"></line><line transform="translate(0,268)" x2="-5" y2="0" style="fill: none; stroke: #888; stroke-width: 1; opacity: 1;"></line><line transform="translate(0,250)" x2="-5" y2="0" style="fill: none; stroke: #888; stroke-width: 1; opacity: 1;"></line><line transform="translate(0,232)" x2="-5" y2="0" style="fill: none; stroke: #888; stroke-width: 1; opacity: 1;"></line><line transform="translate(0,214)" x2="-5" y2="0" style="fill: none; stroke: #888; stroke-width: 1; opacity: 1;"></line><line transform="translate(0,196)" x2="-5" y2="0" style="fill: none; stroke: #888; stroke-width: 1; opacity: 1;"></line><line transform="translate(0,178)" x2="-5" y2="0" style="fill: none; stroke: #888; stroke-width: 1; opacity: 1;"></line><line transform="translate(0,161)" x2="-5" y2="0" style="fill: none; stroke: #888; stroke-width: 1; opacity: 1;"></line><line transform="translate(0,143)" x2="-5" y2="0" style="fill: none; stroke: #888; stroke-width: 1; opacity: 1;"></line><line transform="translate(0,125)" x2="-5" y2="0" style="fill: none; stroke: #888; stroke-width: 1; opacity: 1;"></line><line transform="translate(0,107)" x2="-5" y2="0" style="fill: none; stroke: #888; stroke-width: 1; opacity: 1;"></line><line transform="translate(0,89)" x2="-5" y2="0" style="fill: none; stroke: #888; stroke-width: 1; opacity: 1;"></line><line transform="translate(0,71)" x2="-5" y2="0" style="fill: none; stroke: #888; stroke-width: 1; opacity: 1;"></line><line transform="translate(0,53)" x2="-5" y2="0" style="fill: none; stroke: #888; stroke-width: 1; opacity: 1;"></line><line transform="translate(0,36)" x2="-5" y2="0" style="fill: none; stroke: #888; stroke-width: 1; opacity: 1;"></line><line transform="translate(0,18)" x2="-5" y2="0" style="fill: none; stroke: #888; stroke-width: 1; opacity: 1;"></line><line transform="translate(0,0)" x2="-5" y2="0" style="fill: none; stroke: #888; stroke-width: 1; opacity: 1;"></line></g><g class="mark-text role-axis-label" style="pointer-events: none;"><text text-anchor="end" transform="translate(-7,325)" style="font-family: Courier; font-size: 14px; fill: #000; opacity: 1;">0</text><text text-anchor="end" transform="translate(-7,307.1666666666667)" style="font-family: Courier; font-size: 14px; fill: #000; opacity: 1;">50</text><text text-anchor="end" transform="translate(-7,289.3333333333333)" style="font-family: Courier; font-size: 14px; fill: #000; opacity: 1;">100</text><text text-anchor="end" transform="translate(-7,271.5)" style="font-family: Courier; font-size: 14px; fill: #000; opacity: 1;">150</text><text text-anchor="end" transform="translate(-7,253.66666666666666)" style="font-family: Courier; font-size: 14px; fill: #000; opacity: 1;">200</text><text text-anchor="end" transform="translate(-7,235.83333333333334)" style="font-family: Courier; font-size: 14px; fill: #000; opacity: 1;">250</text><text text-anchor="end" transform="translate(-7,218.00000000000003)" style="font-family: Courier; font-size: 14px; fill: #000; opacity: 1;">300</text><text text-anchor="end" transform="translate(-7,200.16666666666669)" style="font-family: Courier; font-size: 14px; fill: #000; opacity: 1;">350</text><text text-anchor="end" transform="translate(-7,182.33333333333334)" style="font-family: Courier; font-size: 14px; fill: #000; opacity: 1;">400</text><text text-anchor="end" transform="translate(-7,164.5)" style="font-family: Courier; font-size: 14px; fill: #000; opacity: 1;">450</text><text text-anchor="end" transform="translate(-7,146.66666666666666)" style="font-family: Courier; font-size: 14px; fill: #000; opacity: 1;">500</text><text text-anchor="end" transform="translate(-7,128.83333333333331)" style="font-family: Courier; font-size: 14px; fill: #000; opacity: 1;">550</text><text text-anchor="end" transform="translate(-7,111.00000000000001)" style="font-family: Courier; font-size: 14px; fill: #000; opacity: 1;">600</text><text text-anchor="end" transform="translate(-7,93.16666666666667)" style="font-family: Courier; font-size: 14px; fill: #000; opacity: 1;">650</text><text text-anchor="end" transform="translate(-7,75.33333333333333)" style="font-family: Courier; font-size: 14px; fill: #000; opacity: 1;">700</text><text text-anchor="end" transform="translate(-7,57.499999999999986)" style="font-family: Courier; font-size: 14px; fill: #000; opacity: 1;">750</text><text text-anchor="end" transform="translate(-7,39.666666666666686)" style="font-family: Courier; font-size: 14px; fill: #000; opacity: 1;">800</text><text text-anchor="end" transform="translate(-7,21.833333333333343)" style="font-family: Courier; font-size: 14px; fill: #000; opacity: 1;">850</text><text text-anchor="end" transform="translate(-7,4)" style="font-family: Courier; font-size: 14px; fill: #000; opacity: 1;">900</text></g><g class="mark-rule role-axis-domain" style="pointer-events: none;"><line transform="translate(0,321)" x2="0" y2="-321" style="fill: none; stroke: #888; stroke-width: 1; opacity: 1;"></line></g></g><path class="foreground" d="" style="pointer-events: none; display: none; fill: none;"></path></g></g><g class="mark-group role-scope pathgroup"><g transform="translate(0,0)"><path class="background" d="M0,0h404v321h-404Z" style="fill: none;"></path><g><g class="mark-area role-mark marks"><path d="M0,80.25L28.849080851539366,60.98999999999998L57.709448510923615,103.79L86.56981617030787,73.47333333333334L115.41889702184723,65.27000000000001L144.2792646812315,3.566666666666654L173.13963234061575,93.44666666666666L202,31.030000000000005L230.84908085153936,144.80666666666667L259.7094485109236,32.099999999999994L288.56981617030783,63.486666666666686L317.43018382969217,185.46666666666664L346.2792646812315,121.62333333333335L375.1396323406158,35.666666666666686L404,28.17666666666665L404,117.34333333333332L375.1396323406158,64.19999999999999L346.2792646812315,182.61333333333334L317.43018382969217,211.50333333333333L288.56981617030783,113.06333333333333L259.7094485109236,88.09666666666668L230.84908085153936,200.8033333333333L202,104.86L173.13963234061575,178.69L144.2792646812315,82.03333333333333L115.41889702184723,139.45666666666665L86.56981617030787,161.21333333333334L57.709448510923615,199.73333333333335L28.849080851539366,162.99666666666667L0,147.30333333333334Z" style="fill: #56769d; fill-opacity: 0.7273849665168456; stroke: none; stroke-width: 0.2756128439249719;"></path></g></g><path class="foreground" d="" style="display: none; fill: none;"></path></g><g transform="translate(0,0)"><path class="background" d="M0,0h404v321h-404Z" style="fill: none;"></path><g><g class="mark-area role-mark marks"><path d="M0,147.30333333333334L28.849080851539366,162.99666666666667L57.709448510923615,199.73333333333335L86.56981617030787,161.21333333333334L115.41889702184723,139.45666666666665L144.2792646812315,82.03333333333333L173.13963234061575,178.69L202,104.86L230.84908085153936,200.8033333333333L259.7094485109236,88.09666666666668L288.56981617030783,113.06333333333333L317.43018382969217,211.50333333333333L346.2792646812315,182.61333333333334L375.1396323406158,64.19999999999999L404,117.34333333333332L404,144.80666666666667L375.1396323406158,165.85L346.2792646812315,228.62333333333333L317.43018382969217,262.15L288.56981617030783,191.17333333333335L259.7094485109236,156.93333333333334L230.84908085153936,231.83333333333334L202,180.83L173.13963234061575,220.42L144.2792646812315,148.37333333333333L115.41889702184723,171.55666666666667L86.56981617030787,246.81333333333336L57.709448510923615,235.75666666666666L28.849080851539366,223.63L0,186.18000000000004Z" style="fill: #854059; fill-opacity: 0.7273849665168456; stroke: none; stroke-width: 0.2756128439249719;"></path></g></g><path class="foreground" d="" style="display: none; fill: none;"></path></g><g transform="translate(0,0)"><path class="background" d="M0,0h404v321h-404Z" style="fill: none;"></path><g><g class="mark-area role-mark marks"><path d="M0,186.18000000000004L28.849080851539366,223.63L57.709448510923615,235.75666666666666L86.56981617030787,246.81333333333336L115.41889702184723,171.55666666666667L144.2792646812315,148.37333333333333L173.13963234061575,220.42L202,180.83L230.84908085153936,231.83333333333334L259.7094485109236,156.93333333333334L288.56981617030783,191.17333333333335L317.43018382969217,262.15L346.2792646812315,228.62333333333333L375.1396323406158,165.85L404,144.80666666666667L404,230.76333333333335L375.1396323406158,268.57L346.2792646812315,299.24333333333334L317.43018382969217,287.1166666666667L288.56981617030783,221.48999999999998L259.7094485109236,234.68666666666664L230.84908085153936,299.6L202,238.96666666666667L173.13963234061575,254.66L144.2792646812315,244.31666666666666L115.41889702184723,261.79333333333335L86.56981617030787,270.71L57.709448510923615,274.6333333333334L28.849080851539366,283.55L0,236.47Z" style="fill: #d2a235; fill-opacity: 0.7273849665168456; stroke: none; stroke-width: 0.2756128439249719;"></path></g></g><path class="foreground" d="" style="display: none; fill: none;"></path></g><g transform="translate(0,0)"><path class="background" d="M0,0h404v321h-404Z" style="fill: none;"></path><g><g class="mark-area role-mark marks"><path d="M0,236.47L28.849080851539366,283.55L57.709448510923615,274.6333333333334L86.56981617030787,270.71L115.41889702184723,261.79333333333335L144.2792646812315,244.31666666666666L173.13963234061575,254.66L202,238.96666666666667L230.84908085153936,299.6L259.7094485109236,234.68666666666664L288.56981617030783,221.48999999999998L317.43018382969217,287.1166666666667L346.2792646812315,299.24333333333334L375.1396323406158,268.57L404,230.76333333333335L404,321L375.1396323406158,321L346.2792646812315,321L317.43018382969217,321L288.56981617030783,321L259.7094485109236,321L230.84908085153936,321L202,321L173.13963234061575,321L144.2792646812315,321L115.41889702184723,321L86.56981617030787,321L57.709448510923615,321L28.849080851539366,321L0,321Z" style="fill: #964324; fill-opacity: 0.7273849665168456; stroke: none; stroke-width: 0.2756128439249719;"></path></g></g><path class="foreground" d="" style="display: none; fill: none;"></path></g></g><g class="mark-group role-legend"><g transform="translate(423,0)"><path class="background" d="M0,0h14v30h-14Z" style="pointer-events: none; fill: none;"></path><g><g class="mark-group role-legend-entry"><g transform="translate(0,0)"><path class="background" d="M0,0h0v0h0Z" style="pointer-events: none; fill: none;"></path><g><g class="mark-group role-scope"><g transform="translate(0,0)"><path class="background" d="M0,0h14v5.275612843924971h-14Z" style="pointer-events: none; fill: none; opacity: 1;"></path><g><g class="mark-symbol role-legend-symbol" style="pointer-events: none;"><path transform="translate(5,5)" d="M0,0" style="fill: #56769d; fill-opacity: 0.7273849665168456; stroke: none; stroke-width: 0.2756128439249719; opacity: 1;"></path></g><g class="mark-text role-legend-label" style="pointer-events: none;"><text text-anchor="start" transform="translate(14,5)" style="font-family: sans-serif; font-size: 0px; fill: #000; opacity: 1;">0</text></g></g><path class="foreground" d="" style="pointer-events: none; display: none; fill: none;"></path></g><g transform="translate(0,8)"><path class="background" d="M0,0h14v5.275612843924971h-14Z" style="pointer-events: none; fill: none; opacity: 1;"></path><g><g class="mark-symbol role-legend-symbol" style="pointer-events: none;"><path transform="translate(5,5)" d="M0,0" style="fill: #854059; fill-opacity: 0.7273849665168456; stroke: none; stroke-width: 0.2756128439249719; opacity: 1;"></path></g><g class="mark-text role-legend-label" style="pointer-events: none;"><text text-anchor="start" transform="translate(14,5)" style="font-family: sans-serif; font-size: 0px; fill: #000; opacity: 1;">1</text></g></g><path class="foreground" d="" style="pointer-events: none; display: none; fill: none;"></path></g><g transform="translate(0,16)"><path class="background" d="M0,0h14v5.275612843924971h-14Z" style="pointer-events: none; fill: none; opacity: 1;"></path><g><g class="mark-symbol role-legend-symbol" style="pointer-events: none;"><path transform="translate(5,5)" d="M0,0" style="fill: #d2a235; fill-opacity: 0.7273849665168456; stroke: none; stroke-width: 0.2756128439249719; opacity: 1;"></path></g><g class="mark-text role-legend-label" style="pointer-events: none;"><text text-anchor="start" transform="translate(14,5)" style="font-family: sans-serif; font-size: 0px; fill: #000; opacity: 1;">2</text></g></g><path class="foreground" d="" style="pointer-events: none; display: none; fill: none;"></path></g><g transform="translate(0,24)"><path class="background" d="M0,0h14v5.275612843924971h-14Z" style="pointer-events: none; fill: none; opacity: 1;"></path><g><g class="mark-symbol role-legend-symbol" style="pointer-events: none;"><path transform="translate(5,5)" d="M0,0" style="fill: #964324; fill-opacity: 0.7273849665168456; stroke: none; stroke-width: 0.2756128439249719; opacity: 1;"></path></g><g class="mark-text role-legend-label" style="pointer-events: none;"><text text-anchor="start" transform="translate(14,5)" style="font-family: sans-serif; font-size: 0px; fill: #000; opacity: 1;">3</text></g></g><path class="foreground" d="" style="pointer-events: none; display: none; fill: none;"></path></g></g></g><path class="foreground" d="" style="pointer-events: none; display: none; fill: none;"></path></g></g></g><path class="foreground" d="" style="pointer-events: none; display: none; fill: none;"></path></g></g></g><path class="foreground" d="" style="display: none; fill: none;"></path></g></g></g></svg>