<svg xmlns="http://www.w3.org/2000/svg" xmlns:xlink="http://www.w3.org/1999/xlink" version="1.1" class="marks" width="381" height="258" viewBox="0 0 381 258"><rect width="381" height="258" fill="#fff2df"/><g fill="none" stroke-miterlimit="10" transform="translate(33,39)"><g class="mark-group role-frame root" role="graphics-object" aria-roledescription="group mark container"><g transform="translate(0,0)"><path class="background" aria-hidden="true" d="M0.5,0.5h311v200h-311Z" stroke="#ddd"/><g><g class="mark-group role-axis" aria-hidden="true"><g transform="translate(0.5,200.5)"><path class="background" aria-hidden="true" d="M0,0h0v0h0Z" pointer-events="none"/><g><g class="mark-rule role-axis-grid" pointer-events="none"><line transform="translate(31,-200)" x2="0" y2="200" stroke="#000000" stroke-opacity="0.38761852156667226" stroke-width="0.6619146786758556" opacity="1"/><line transform="translate(63,-200)" x2="0" y2="200" stroke="#000000" stroke-opacity="0.38761852156667226" stroke-width="0.6619146786758556" opacity="1"/><line transform="translate(94,-200)" x2="0" y2="200" stroke="#000000" stroke-opacity="0.38761852156667226" stroke-width="0.6619146786758556" opacity="1"/><line transform="translate(126,-200)" x2="0" y2="200" stroke="#000000" stroke-opacity="0.38761852156667226" stroke-width="0.6619146786758556" opacity="1"/><line transform="translate(157,-200)" x2="0" y2="200" stroke="#000000" stroke-opacity="0.38761852156667226" stroke-width="0.6619146786758556" opacity="1"/><line transform="translate(188,-200)" x2="0" y2="200" stroke="#000000" stroke-opacity="0.38761852156667226" stroke-width="0.6619146786758556" opacity="1"/><line transform="translate(220,-200)" x2="0" y2="200" stroke="#000000" stroke-opacity="0.38761852156667226" stroke-width="0.6619146786758556" opacity="1"/><line transform="translate(251,-200)" x2="0" y2="200" stroke="#000000" stroke-opacity="0.38761852156667226" stroke-width="0.6619146786758556" opacity="1"/><line transform="translate(283,-200)" x2="0" y2="200" stroke="#000000" stroke-opacity="0.38761852156667226" stroke-width="0.6619146786758556" opacity="1"/></g></g><path class="foreground" aria-hidden="true" d="" pointer-events="none" display="none"/></g></g><g class="mark-group role-axis" aria-hidden="true"><g transform="translate(0.5,0.5)"><path class="background" aria-hidden="true" d="M0,0h0v0h0Z" pointer-events="none"/><g><g class="mark-rule role-axis-grid" pointer-events="none"><line transform="translate(0,200)" x2="311" y2="0" stroke="#000000" stroke-opacity="0.7514078888863687" stroke-width="0.37555336044364873" opacity="1"/><line transform="translate(0,192)" x2="311" y2="0" stroke="#000000" stroke-opacity="0.7514078888863687" stroke-width="0.37555336044364873" opacity="1"/><line transform="translate(0,185)" x2="311" y2="0" stroke="#000000" stroke-opacity="0.7514078888863687" stroke-width="0.37555336044364873" opacity="1"/><line transform="translate(0,177)" x2="311" y2="0" stroke="#000000" stroke-opacity="0.7514078888863687" stroke-width="0.37555336044364873" opacity="1"/><line transform="translate(0,169)" x2="311" y2="0" stroke="#000000" stroke-opacity="0.7514078888863687" stroke-width="0.37555336044364873" opacity="1"/><line transform="translate(0,162)" x2="311" y2="0" stroke="#000000" stroke-opacity="0.7514078888863687" stroke-width="0.37555336044364873" opacity="1"/><line transform="translate(0,154)" x2="311" y2="0" stroke="#000000" stroke-opacity="0.7514078888863687" stroke-width="0.37555336044364873" opacity="1"/><line transform="translate(0,146)" x2="311" y2="0" stroke="#000000" stroke-opacity="0.7514078888863687" stroke-width="0.37555336044364873" opacity="1"/><line transform="translate(0,138)" x2="311" y2="0" stroke="#000000" stroke-opacity="0.7514078888863687" stroke-width="0.37555336044364873" opacity="1"/><line transform="translate(0,131)" x2="311" y2="0" stroke="#000000" stroke-opacity="0.7514078888863687" stroke-width="0.37555336044364873" opacity="1"/><line transform="translate(0,123)" x2="311" y2="0" stroke="#000000" stroke-opacity="0.7514078888863687" stroke-width="0.37555336044364873" opacity="1"/><line transform="translate(0,115)" x2="311" y2="0" stroke="#000000" stroke-opacity="0.7514078888863687" stroke-width="0.37555336044364873" opacity="1"/><line transform="translate(0,108)" x2="311" y2="0" stroke="#000000" stroke-opacity="0.7514078888863687" stroke-width="0.37555336044364873" opacity="1"/><line transform="translate(0,100)" x2="311" y2="0" stroke="#000000" stroke-opacity="0.7514078888863687" stroke-width="0.37555336044364873" opacity="1"/><line transform="translate(0,92)" x2="311" y2="0" stroke="#000000" stroke-opacity="0.7514078888863687" stroke-width="0.37555336044364873" opacity="1"/><line transform="translate(0,85)" x2="311" y2="0" stroke="#000000" stroke-opacity="0.7514078888863687" stroke-width="0.37555336044364873" opacity="1"/><line transform="translate(0,77)" x2="311" y2="0" stroke="#000000" stroke-opacity="0.7514078888863687" stroke-width="0.37555336044364873" opacity="1"/><line transform="translate(0,69)" x2="311" y2="0" stroke="#000000" stroke-opacity="0.7514078888863687" stroke-width="0.37555336044364873" opacity="1"/><line transform="translate(0,62)" x2="311" y2="0" stroke="#000000" stroke-opacity="0.7514078888863687" stroke-width="0.37555336044364873" opacity="1"/><line transform="translate(0,54)" x2="311" y2="0" stroke="#000000" stroke-opacity="0.7514078888863687" stroke-width="0.37555336044364873" opacity="1"/><line transform="translate(0,46)" x2="311" y2="0" stroke="#000000" stroke-opacity="0.7514078888863687" stroke-width="0.37555336044364873" opacity="1"/><line transform="translate(0,38)" x2="311" y2="0" stroke="#000000" stroke-opacity="0.7514078888863687" stroke-width="0.37555336044364873" opacity="1"/><line transform="translate(0,31)" x2="311" y2="0" stroke="#000000" stroke-opacity="0.7514078888863687" stroke-width="0.37555336044364873" opacity="1"/><line transform="translate(0,23)" x2="311" y2="0" stroke="#000000" stroke-opacity="0.7514078888863687" stroke-width="0.37555336044364873" opacity="1"/><line transform="translate(0,15)" x2="311" y2="0" stroke="#000000" stroke-opacity="0.7514078888863687" stroke-width="0.37555336044364873" opacity="1"/><line transform="translate(0,8)" x2="311" y2="0" stroke="#000000" stroke-opacity="0.7514078888863687" stroke-width="0.37555336044364873" opacity="1"/><line transform="translate(0,0)" x2="311" y2="0" stroke="#000000" stroke-opacity="0.7514078888863687" stroke-width="0.37555336044364873" opacity="1"/></g></g><path class="foreground" aria-hidden="true" d="" pointer-events="none" display="none"/></g></g><g class="mark-group role-axis" role="graphics-symbol" aria-roledescription="axis" aria-label="X-axis for a time scale with values from Monday, 01 January 1900, 8:27:52 AM to Friday, 01 January 1999, 9:00:00 AM"><g transform="translate(0.5,200.5)"><path class="background" aria-hidden="true" d="M0,0h0v0h0Z" pointer-events="none"/><g><g class="mark-text role-axis-label" pointer-events="none"><text text-anchor="middle" transform="translate(31.407446394166506,12)" font-family="Tahoma" font-size="11px" fill="#000" opacity="1">1910</text><text text-anchor="middle" transform="translate(62.81775975552421,12)" font-family="Tahoma" font-size="11px" fill="#000" opacity="1">1920</text><text text-anchor="middle" transform="translate(94.23685320390497,12)" font-family="Tahoma" font-size="11px" fill="#000" opacity="1">1930</text><text text-anchor="middle" transform="translate(125.64734575071213,12)" font-family="Tahoma" font-size="11px" fill="#000" opacity="1">1940</text><text text-anchor="middle" transform="translate(157.06643919909288,12)" font-family="Tahoma" font-size="11px" fill="#000" opacity="1">1950</text><text text-anchor="middle" transform="translate(188.4771109313495,12)" font-family="Tahoma" font-size="11px" fill="#000" opacity="1">1960</text><text text-anchor="middle" transform="translate(219.8960251942808,12)" font-family="Tahoma" font-size="11px" fill="#000" opacity="1">1970</text><text text-anchor="middle" transform="translate(251.30651774108796,12)" font-family="Tahoma" font-size="11px" fill="#000" opacity="1">1980</text><text text-anchor="middle" transform="translate(282.72561118946874,12)" font-family="Tahoma" font-size="11px" fill="#000" opacity="1">1990</text></g><g class="mark-rule role-axis-domain" pointer-events="none"><line transform="translate(0,0)" x2="311" y2="0" stroke="#888" stroke-width="1" opacity="1"/></g></g><path class="foreground" aria-hidden="true" d="" pointer-events="none" display="none"/></g></g><g class="mark-group role-axis" role="graphics-symbol" aria-roledescription="axis" aria-label="Y-axis for a linear scale with values from 0 to 130"><g transform="translate(0.5,0.5)"><path class="background" aria-hidden="true" d="M0,0h0v0h0Z" pointer-events="none"/><g><g class="mark-rule role-axis-tick" pointer-events="none"><line transform="translate(0,200)" x2="-5" y2="0" stroke="#888" stroke-width="1" opacity="1"/><line transform="translate(0,192)" x2="-5" y2="0" stroke="#888" stroke-width="1" opacity="1"/><line transform="translate(0,185)" x2="-5" y2="0" stroke="#888" stroke-width="1" opacity="1"/><line transform="translate(0,177)" x2="-5" y2="0" stroke="#888" stroke-width="1" opacity="1"/><line transform="translate(0,169)" x2="-5" y2="0" stroke="#888" stroke-width="1" opacity="1"/><line transform="translate(0,162)" x2="-5" y2="0" stroke="#888" stroke-width="1" opacity="1"/><line transform="translate(0,154)" x2="-5" y2="0" stroke="#888" stroke-width="1" opacity="1"/><line transform="translate(0,146)" x2="-5" y2="0" stroke="#888" stroke-width="1" opacity="1"/><line transform="translate(0,138)" x2="-5" y2="0" stroke="#888" stroke-width="1" opacity="1"/><line transform="translate(0,131)" x2="-5" y2="0" stroke="#888" stroke-width="1" opacity="1"/><line transform="translate(0,123)" x2="-5" y2="0" stroke="#888" stroke-width="1" opacity="1"/><line transform="translate(0,115)" x2="-5" y2="0" stroke="#888" stroke-width="1" opacity="1"/><line transform="translate(0,108)" x2="-5" y2="0" stroke="#888" stroke-width="1" opacity="1"/><line transform="translate(0,100)" x2="-5" y2="0" stroke="#888" stroke-width="1" opacity="1"/><line transform="translate(0,92)" x2="-5" y2="0" stroke="#888" stroke-width="1" opacity="1"/><line transform="translate(0,85)" x2="-5" y2="0" stroke="#888" stroke-width="1" opacity="1"/><line transform="translate(0,77)" x2="-5" y2="0" stroke="#888" stroke-width="1" opacity="1"/><line transform="translate(0,69)" x2="-5" y2="0" stroke="#888" stroke-width="1" opacity="1"/><line transform="translate(0,62)" x2="-5" y2="0" stroke="#888" stroke-width="1" opacity="1"/><line transform="translate(0,54)" x2="-5" y2="0" stroke="#888" stroke-width="1" opacity="1"/><line transform="translate(0,46)" x2="-5" y2="0" stroke="#888" stroke-width="1" opacity="1"/><line transform="translate(0,38)" x2="-5" y2="0" stroke="#888" stroke-width="1" opacity="1"/><line transform="translate(0,31)" x2="-5" y2="0" stroke="#888" stroke-width="1" opacity="1"/><line transform="translate(0,23)" x2="-5" y2="0" stroke="#888" stroke-width="1" opacity="1"/><line transform="translate(0,15)" x2="-5" y2="0" stroke="#888" stroke-width="1" opacity="1"/><line transform="translate(0,8)" x2="-5" y2="0" stroke="#888" stroke-width="1" opacity="1"/><line transform="translate(0,0)" x2="-5" y2="0" stroke="#888" stroke-width="1" opacity="1"/></g><g class="mark-text role-axis-label" pointer-events="none"><text text-anchor="end" transform="translate(-7,203)" font-family="Verdana" font-size="11px" fill="#000" opacity="1">0</text><text text-anchor="end" transform="translate(-7,195.30769230769232)" font-family="Verdana" font-size="11px" fill="#000" opacity="0">5</text><text text-anchor="end" transform="translate(-7,187.6153846153846)" font-family="Verdana" font-size="11px" fill="#000" opacity="1">10</text><text text-anchor="end" transform="translate(-7,179.9230769230769)" font-family="Verdana" font-size="11px" fill="#000" opacity="0">15</text><text text-anchor="end" transform="translate(-7,172.23076923076923)" font-family="Verdana" font-size="11px" fill="#000" opacity="1">20</text><text text-anchor="end" transform="translate(-7,164.53846153846155)" font-family="Verdana" font-size="11px" fill="#000" opacity="0">25</text><text text-anchor="end" transform="translate(-7,156.84615384615384)" font-family="Verdana" font-size="11px" fill="#000" opacity="1">30</text><text text-anchor="end" transform="translate(-7,149.15384615384616)" font-family="Verdana" font-size="11px" fill="#000" opacity="0">35</text><text text-anchor="end" transform="translate(-7,141.46153846153845)" font-family="Verdana" font-size="11px" fill="#000" opacity="1">40</text><text text-anchor="end" transform="translate(-7,133.76923076923077)" font-family="Verdana" font-size="11px" fill="#000" opacity="0">45</text><text text-anchor="end" transform="translate(-7,126.07692307692308)" font-family="Verdana" font-size="11px" fill="#000" opacity="1">50</text><text text-anchor="end" transform="translate(-7,118.38461538461537)" font-family="Verdana" font-size="11px" fill="#000" opacity="0">55</text><text text-anchor="end" transform="translate(-7,110.6923076923077)" font-family="Verdana" font-size="11px" fill="#000" opacity="1">60</text><text text-anchor="end" transform="translate(-7,103)" font-family="Verdana" font-size="11px" fill="#000" opacity="0">65</text><text text-anchor="end" transform="translate(-7,95.3076923076923)" font-family="Verdana" font-size="11px" fill="#000" opacity="1">70</text><text text-anchor="end" transform="translate(-7,87.61538461538463)" font-family="Verdana" font-size="11px" fill="#000" opacity="0">75</text><text text-anchor="end" transform="translate(-7,79.92307692307692)" font-family="Verdana" font-size="11px" fill="#000" opacity="1">80</text><text text-anchor="end" transform="translate(-7,72.23076923076923)" font-family="Verdana" font-size="11px" fill="#000" opacity="0">85</text><text text-anchor="end" transform="translate(-7,64.53846153846155)" font-family="Verdana" font-size="11px" fill="#000" opacity="1">90</text><text text-anchor="end" transform="translate(-7,56.846153846153854)" font-family="Verdana" font-size="11px" fill="#000" opacity="0">95</text><text text-anchor="end" transform="translate(-7,49.153846153846146)" font-family="Verdana" font-size="11px" fill="#000" opacity="1">100</text><text text-anchor="end" transform="translate(-7,41.46153846153846)" font-family="Verdana" font-size="11px" fill="#000" opacity="0">105</text><text text-anchor="end" transform="translate(-7,33.769230769230774)" font-family="Verdana" font-size="11px" fill="#000" opacity="1">110</text><text text-anchor="end" transform="translate(-7,26.076923076923084)" font-family="Verdana" font-size="11px" fill="#000" opacity="0">115</text><text text-anchor="end" transform="translate(-7,18.384615384615373)" font-family="Verdana" font-size="11px" fill="#000" opacity="1">120</text><text text-anchor="end" transform="translate(-7,10.692307692307686)" font-family="Verdana" font-size="11px" fill="#000" opacity="0">125</text><text text-anchor="end" transform="translate(-7,3)" font-family="Verdana" font-size="11px" fill="#000" opacity="1">130</text></g><g class="mark-rule role-axis-domain" pointer-events="none"><line transform="translate(0,200)" x2="0" y2="-200" stroke="#888" stroke-width="1" opacity="1"/></g></g><path class="foreground" aria-hidden="true" d="" pointer-events="none" display="none"/></g></g><g class="mark-group role-scope pathgroup" role="graphics-object" aria-roledescription="group mark container"><g transform="translate(0,0)"><path class="background" aria-hidden="true" d="M0,0h311v200h-311Z"/><g><g class="mark-area role-mark marks" role="graphics-object" aria-roledescription="area mark container"><path aria-label="c: #252900; x: Jan 01, 1900; y: 36.4302134811" role="graphics-symbol" aria-roledescription="area mark" d="M0,30.698157602936416L34.54982162117315,11.623461806956303L69.1082441439199,56.76144086884067L103.66666666666666,38.3360345820005L138.2164882878398,59.37770774801081L172.7749108105866,69.75103346722453L207.33333333333331,56.190591533232826L241.8917558560801,64.02412526850799L276.44157747725325,45.114265578205014L311,53.83486194436391L311,111.9571398629664L276.44157747725325,105.51991870075258L241.8917558560801,116.12659583125522L207.33333333333331,101.02777735615476L172.7749108105866,122.06108359396677L138.2164882878398,109.81954179879796L103.66666666666666,87.53239124881762L69.1082441439199,113.43066183947808L34.54982162117315,73.48217187746894L0,86.7446398815888Z" fill="#bac588"/></g></g><path class="foreground" aria-hidden="true" d="" display="none"/></g><g transform="translate(0,0)"><path class="background" aria-hidden="true" d="M0,0h311v200h-311Z"/><g><g class="mark-area role-mark marks" role="graphics-object" aria-roledescription="area mark container"><path aria-label="c: #b7b1a4; x: Jan 01, 1900; y: 25.3415016941" role="graphics-symbol" aria-roledescription="area mark" d="M0,86.7446398815888L34.54982162117315,73.48217187746894L69.1082441439199,113.43066183947808L103.66666666666666,87.53239124881762L138.2164882878398,109.81954179879796L172.7749108105866,122.06108359396677L207.33333333333331,101.02777735615476L241.8917558560801,116.12659583125522L276.44157747725325,105.51991870075258L311,111.9571398629664L311,131.7251585192706L276.44157747725325,125.4709745668374L241.8917558560801,135.8946144875594L207.33333333333331,123.90742857872907L172.7749108105866,151.5300743686425L138.2164882878398,137.45816047566774L103.66666666666666,140.06407045584825L69.1082441439199,136.6763874816136L34.54982162117315,127.29511155296373L0,125.73156556485543Z" fill="#947360"/></g></g><path class="foreground" aria-hidden="true" d="" display="none"/></g><g transform="translate(0,0)"><path class="background" aria-hidden="true" d="M0,0h311v200h-311Z"/><g><g class="mark-area role-mark marks" role="graphics-object" aria-roledescription="area mark container"><path aria-label="c: #d2a235; x: Jan 01, 1900; y: 48.2744823828" role="graphics-symbol" aria-roledescription="area mark" d="M0,125.73156556485543L34.54982162117315,127.29511155296373L69.1082441439199,136.6763874816136L103.66666666666666,140.06407045584825L138.2164882878398,137.45816047566774L172.7749108105866,151.5300743686425L207.33333333333331,123.90742857872907L241.8917558560801,135.8946144875594L276.44157747725325,125.4709745668374L311,131.7251585192706L311,200L276.44157747725325,200L241.8917558560801,200L207.33333333333331,200L172.7749108105866,200L138.2164882878398,200L103.66666666666666,200L69.1082441439199,200L34.54982162117315,200L0,200Z" fill="#eaa177"/></g></g><path class="foreground" aria-hidden="true" d="" display="none"/></g></g><g class="mark-group role-legend" role="graphics-symbol" aria-roledescription="legend" aria-label="Symbol legend for fill color with 3 values: #252900, #b7b1a4, #d2a235"><g transform="translate(329,0)"><path class="background" aria-hidden="true" d="M0,0h14v19h-14Z" pointer-events="none"/><g><g class="mark-group role-legend-entry"><g transform="translate(0,0)"><path class="background" aria-hidden="true" d="M0,0h0v0h0Z" pointer-events="none"/><g><g class="mark-group role-scope" role="graphics-object" aria-roledescription="group mark container"><g transform="translate(0,0)"><path class="background" aria-hidden="true" d="M0,0h14v5h-14Z" pointer-events="none" opacity="1"/><g><g class="mark-symbol role-legend-symbol" pointer-events="none"><path transform="translate(5,5)" d="M0,0" fill="#bac588" stroke-width="1.5" opacity="1"/></g><g class="mark-text role-legend-label" pointer-events="none"><text text-anchor="start" transform="translate(14,5)" font-family="sans-serif" font-size="0px" fill="#000" opacity="1">#252900</text></g></g><path class="foreground" aria-hidden="true" d="" pointer-events="none" display="none"/></g><g transform="translate(0,7)"><path class="background" aria-hidden="true" d="M0,0h14v5h-14Z" pointer-events="none" opacity="1"/><g><g class="mark-symbol role-legend-symbol" pointer-events="none"><path transform="translate(5,5)" d="M0,0" fill="#947360" stroke-width="1.5" opacity="1"/></g><g class="mark-text role-legend-label" pointer-events="none"><text text-anchor="start" transform="translate(14,5)" font-family="sans-serif" font-size="0px" fill="#000" opacity="1">#b7b1a4</text></g></g><path class="foreground" aria-hidden="true" d="" pointer-events="none" display="none"/></g><g transform="translate(0,14)"><path class="background" aria-hidden="true" d="M0,0h14v5h-14Z" pointer-events="none" opacity="1"/><g><g class="mark-symbol role-legend-symbol" pointer-events="none"><path transform="translate(5,5)" d="M0,0" fill="#eaa177" stroke-width="1.5" opacity="1"/></g><g class="mark-text role-legend-label" pointer-events="none"><text text-anchor="start" transform="translate(14,5)" font-family="sans-serif" font-size="0px" fill="#000" opacity="1">#d2a235</text></g></g><path class="foreground" aria-hidden="true" d="" pointer-events="none" display="none"/></g></g></g><path class="foreground" aria-hidden="true" d="" pointer-events="none" display="none"/></g></g></g><path class="foreground" aria-hidden="true" d="" pointer-events="none" display="none"/></g></g><g class="mark-group role-title"><g transform="translate(155.5,-34)"><path class="background" aria-hidden="true" d="M0,0h0v0h0Z" pointer-events="none"/><g><g class="mark-text role-title-text" role="graphics-symbol" aria-roledescription="title" aria-label="Title text 'Floor Alternatives'" pointer-events="none"><text text-anchor="middle" transform="translate(0,13)" font-family="Times" font-size="16px" font-style="oblique" font-weight="bold" fill="#000000" opacity="1">Floor Alternatives</text></g></g><path class="foreground" aria-hidden="true" d="" pointer-events="none" display="none"/></g></g></g><path class="foreground" aria-hidden="true" d="" display="none"/></g></g></g></svg>