<svg xmlns="http://www.w3.org/2000/svg" xmlns:xlink="http://www.w3.org/1999/xlink" version="1.1" class="marks" width="421" height="278" viewBox="0 0 421 278"><rect width="421" height="278" fill="#ffeddc"/><g fill="none" stroke-miterlimit="10" transform="translate(24,31)"><g class="mark-group role-frame root" role="graphics-object" aria-roledescription="group mark container"><g transform="translate(0,0)"><path class="background" aria-hidden="true" d="M0.5,0.5h360v200h-360Z" stroke="#ddd"/><g><g class="mark-group role-axis" aria-hidden="true"><g transform="translate(0.5,200.5)"><path class="background" aria-hidden="true" d="M0,0h0v0h0Z" pointer-events="none"/><g><g class="mark-rule role-axis-grid" pointer-events="none"><line transform="translate(17,-200)" x2="0" y2="200" stroke="#000000" stroke-opacity="0.2069002630961156" stroke-width="0.3406174346371448" opacity="1"/><line transform="translate(35,-200)" x2="0" y2="200" stroke="#000000" stroke-opacity="0.2069002630961156" stroke-width="0.3406174346371448" opacity="1"/><line transform="translate(53,-200)" x2="0" y2="200" stroke="#000000" stroke-opacity="0.2069002630961156" stroke-width="0.3406174346371448" opacity="1"/><line transform="translate(71,-200)" x2="0" y2="200" stroke="#000000" stroke-opacity="0.2069002630961156" stroke-width="0.3406174346371448" opacity="1"/><line transform="translate(89,-200)" x2="0" y2="200" stroke="#000000" stroke-opacity="0.2069002630961156" stroke-width="0.3406174346371448" opacity="1"/><line transform="translate(107,-200)" x2="0" y2="200" stroke="#000000" stroke-opacity="0.2069002630961156" stroke-width="0.3406174346371448" opacity="1"/><line transform="translate(125,-200)" x2="0" y2="200" stroke="#000000" stroke-opacity="0.2069002630961156" stroke-width="0.3406174346371448" opacity="1"/><line transform="translate(143,-200)" x2="0" y2="200" stroke="#000000" stroke-opacity="0.2069002630961156" stroke-width="0.3406174346371448" opacity="1"/><line transform="translate(161,-200)" x2="0" y2="200" stroke="#000000" stroke-opacity="0.2069002630961156" stroke-width="0.3406174346371448" opacity="1"/><line transform="translate(179,-200)" x2="0" y2="200" stroke="#000000" stroke-opacity="0.2069002630961156" stroke-width="0.3406174346371448" opacity="1"/><line transform="translate(197,-200)" x2="0" y2="200" stroke="#000000" stroke-opacity="0.2069002630961156" stroke-width="0.3406174346371448" opacity="1"/><line transform="translate(215,-200)" x2="0" y2="200" stroke="#000000" stroke-opacity="0.2069002630961156" stroke-width="0.3406174346371448" opacity="1"/><line transform="translate(233,-200)" x2="0" y2="200" stroke="#000000" stroke-opacity="0.2069002630961156" stroke-width="0.3406174346371448" opacity="1"/><line transform="translate(251,-200)" x2="0" y2="200" stroke="#000000" stroke-opacity="0.2069002630961156" stroke-width="0.3406174346371448" opacity="1"/><line transform="translate(269,-200)" x2="0" y2="200" stroke="#000000" stroke-opacity="0.2069002630961156" stroke-width="0.3406174346371448" opacity="1"/><line transform="translate(287,-200)" x2="0" y2="200" stroke="#000000" stroke-opacity="0.2069002630961156" stroke-width="0.3406174346371448" opacity="1"/><line transform="translate(305,-200)" x2="0" y2="200" stroke="#000000" stroke-opacity="0.2069002630961156" stroke-width="0.3406174346371448" opacity="1"/><line transform="translate(323,-200)" x2="0" y2="200" stroke="#000000" stroke-opacity="0.2069002630961156" stroke-width="0.3406174346371448" opacity="1"/><line transform="translate(341,-200)" x2="0" y2="200" stroke="#000000" stroke-opacity="0.2069002630961156" stroke-width="0.3406174346371448" opacity="1"/><line transform="translate(359,-200)" x2="0" y2="200" stroke="#000000" stroke-opacity="0.2069002630961156" stroke-width="0.3406174346371448" opacity="1"/></g></g><path class="foreground" aria-hidden="true" d="" pointer-events="none" display="none"/></g></g><g class="mark-group role-axis" aria-hidden="true"><g transform="translate(0.5,0.5)"><path class="background" aria-hidden="true" d="M0,0h0v0h0Z" pointer-events="none"/><g><g class="mark-rule role-axis-grid" pointer-events="none"><line transform="translate(0,200)" x2="360" y2="0" stroke="#000000" stroke-opacity="0.8670324744806726" stroke-width="1.0812933338232313" opacity="1"/><line transform="translate(0,180)" x2="360" y2="0" stroke="#000000" stroke-opacity="0.8670324744806726" stroke-width="1.0812933338232313" opacity="1"/><line transform="translate(0,160)" x2="360" y2="0" stroke="#000000" stroke-opacity="0.8670324744806726" stroke-width="1.0812933338232313" opacity="1"/><line transform="translate(0,140)" x2="360" y2="0" stroke="#000000" stroke-opacity="0.8670324744806726" stroke-width="1.0812933338232313" opacity="1"/><line transform="translate(0,120)" x2="360" y2="0" stroke="#000000" stroke-opacity="0.8670324744806726" stroke-width="1.0812933338232313" opacity="1"/><line transform="translate(0,100)" x2="360" y2="0" stroke="#000000" stroke-opacity="0.8670324744806726" stroke-width="1.0812933338232313" opacity="1"/><line transform="translate(0,80)" x2="360" y2="0" stroke="#000000" stroke-opacity="0.8670324744806726" stroke-width="1.0812933338232313" opacity="1"/><line transform="translate(0,60)" x2="360" y2="0" stroke="#000000" stroke-opacity="0.8670324744806726" stroke-width="1.0812933338232313" opacity="1"/><line transform="translate(0,40)" x2="360" y2="0" stroke="#000000" stroke-opacity="0.8670324744806726" stroke-width="1.0812933338232313" opacity="1"/><line transform="translate(0,20)" x2="360" y2="0" stroke="#000000" stroke-opacity="0.8670324744806726" stroke-width="1.0812933338232313" opacity="1"/><line transform="translate(0,0)" x2="360" y2="0" stroke="#000000" stroke-opacity="0.8670324744806726" stroke-width="1.0812933338232313" opacity="1"/></g></g><path class="foreground" aria-hidden="true" d="" pointer-events="none" display="none"/></g></g><g class="mark-group role-axis" role="graphics-symbol" aria-roledescription="axis" aria-label="X-axis for a discrete scale with 20 values: algorithm, boiler, duty, ear, foot, ending with west"><g transform="translate(0.5,200.5)"><path class="background" aria-hidden="true" d="M0,0h0v0h0Z" pointer-events="none"/><g><g class="mark-text role-axis-label" pointer-events="none"><text text-anchor="end" transform="translate(8.500000000000005,3) rotate(-45) translate(0,6)" font-family="Verdana" font-size="8px" fill="#000" opacity="1">algorithm</text><text text-anchor="end" transform="translate(26.500000000000007,3) rotate(-45) translate(0,6)" font-family="Verdana" font-size="8px" fill="#000" opacity="1">boiler</text><text text-anchor="end" transform="translate(44.50000000000001,3) rotate(-45) translate(0,6)" font-family="Verdana" font-size="8px" fill="#000" opacity="1">duty</text><text text-anchor="end" transform="translate(62.50000000000001,3) rotate(-45) translate(0,6)" font-family="Verdana" font-size="8px" fill="#000" opacity="1">ear</text><text text-anchor="end" transform="translate(80.5,3) rotate(-45) translate(0,6)" font-family="Verdana" font-size="8px" fill="#000" opacity="1">foot</text><text text-anchor="end" transform="translate(98.5,3) rotate(-45) translate(0,6)" font-family="Verdana" font-size="8px" fill="#000" opacity="1">holds</text><text text-anchor="end" transform="translate(116.5,3) rotate(-45) translate(0,6)" font-family="Verdana" font-size="8px" fill="#000" opacity="1">hyphen</text><text text-anchor="end" transform="translate(134.5,3) rotate(-45) translate(0,6)" font-family="Verdana" font-size="8px" fill="#000" opacity="1">income</text><text text-anchor="end" transform="translate(152.5,3) rotate(-45) translate(0,6)" font-family="Verdana" font-size="8px" fill="#000" opacity="1">maximum</text><text text-anchor="end" transform="translate(170.5,3) rotate(-45) translate(0,6)" font-family="Verdana" font-size="8px" fill="#000" opacity="1">movements</text><text text-anchor="end" transform="translate(188.5,3) rotate(-45) translate(0,6)" font-family="Verdana" font-size="8px" fill="#000" opacity="1">pads</text><text text-anchor="end" transform="translate(206.5,3) rotate(-45) translate(0,6)" font-family="Verdana" font-size="8px" fill="#000" opacity="1">passivation</text><text text-anchor="end" transform="translate(224.5,3) rotate(-45) translate(0,6)" font-family="Verdana" font-size="8px" fill="#000" opacity="1">polishers</text><text text-anchor="end" transform="translate(242.5,3) rotate(-45) translate(0,6)" font-family="Verdana" font-size="8px" fill="#000" opacity="1">rinse</text><text text-anchor="end" transform="translate(260.5,3) rotate(-45) translate(0,6)" font-family="Verdana" font-size="8px" fill="#000" opacity="1">stools</text><text text-anchor="end" transform="translate(278.5,3) rotate(-45) translate(0,6)" font-family="Verdana" font-size="8px" fill="#000" opacity="1">throttle</text><text text-anchor="end" transform="translate(296.5,3) rotate(-45) translate(0,6)" font-family="Verdana" font-size="8px" fill="#000" opacity="1">trim</text><text text-anchor="end" transform="translate(314.5,3) rotate(-45) translate(0,6)" font-family="Verdana" font-size="8px" fill="#000" opacity="1">unit</text><text text-anchor="end" transform="translate(332.5,3) rotate(-45) translate(0,6)" font-family="Verdana" font-size="8px" fill="#000" opacity="1">washers</text><text text-anchor="end" transform="translate(350.5,3) rotate(-45) translate(0,6)" font-family="Verdana" font-size="8px" fill="#000" opacity="1">west</text></g><g class="mark-rule role-axis-domain" pointer-events="none"><line transform="translate(0,0)" x2="360" y2="0" stroke="#888" stroke-width="1" opacity="1"/></g></g><path class="foreground" aria-hidden="true" d="" pointer-events="none" display="none"/></g></g><g class="mark-group role-axis" role="graphics-symbol" aria-roledescription="axis" aria-label="Y-axis for a linear scale with values from 0 to 20"><g transform="translate(0.5,0.5)"><path class="background" aria-hidden="true" d="M0,0h0v0h0Z" pointer-events="none"/><g><g class="mark-rule role-axis-domain" pointer-events="none"><line transform="translate(0,200)" x2="0" y2="-200" stroke="#888" stroke-width="1" opacity="1"/></g></g><path class="foreground" aria-hidden="true" d="" pointer-events="none" display="none"/></g></g><g class="mark-rect role-mark marks" role="graphics-object" aria-roledescription="rect mark container"><path aria-label="x: throttle; y: 10.6" role="graphics-symbol" aria-roledescription="bar" d="M273,94h12v106h-12Z" fill="#b7b1a4" stroke-width="1.3330748839555924"/><path aria-label="x: ear; y: 18.8" role="graphics-symbol" aria-roledescription="bar" d="M57.00000000000001,11.99999999999999h12v188h-12Z" fill="#854059" stroke-width="1.3330748839555924"/><path aria-label="x: pads; y: 2.2" role="graphics-symbol" aria-roledescription="bar" d="M183,178h12v22h-12Z" fill="#937c6f" stroke-width="1.3330748839555924"/><path aria-label="x: hyphen; y: 7.2" role="graphics-symbol" aria-roledescription="bar" d="M111,128h12v72h-12Z" fill="#947360" stroke-width="1.3330748839555924"/><path aria-label="x: washers; y: 14.4" role="graphics-symbol" aria-roledescription="bar" d="M327,56.00000000000001h12v144h-12Z" fill="#d2a235" stroke-width="1.3330748839555924"/><path aria-label="x: polishers; y: 15" role="graphics-symbol" aria-roledescription="bar" d="M219,50h12v150h-12Z" fill="#e5cfbe" stroke-width="1.3330748839555924"/><path aria-label="x: foot; y: 16.4" role="graphics-symbol" aria-roledescription="bar" d="M75,36.00000000000001h12v164h-12Z" fill="#252900" stroke-width="1.3330748839555924"/><path aria-label="x: unit; y: 10.4" role="graphics-symbol" aria-roledescription="bar" d="M309,96h12v104h-12Z" fill="#947c6f" stroke-width="1.3330748839555924"/><path aria-label="x: stools; y: 3.8" role="graphics-symbol" aria-roledescription="bar" d="M255,162h12v38h-12Z" fill="#ca663f" stroke-width="1.3330748839555924"/><path aria-label="x: holds; y: 11.4" role="graphics-symbol" aria-roledescription="bar" d="M93,85.99999999999999h12v114.00000000000001h-12Z" fill="#bac588" stroke-width="1.3330748839555924"/><path aria-label="x: income; y: 10.2" role="graphics-symbol" aria-roledescription="bar" d="M129,98h12v102h-12Z" fill="#2d0e00" stroke-width="1.3330748839555924"/><path aria-label="x: passivation; y: 17.8" role="graphics-symbol" aria-roledescription="bar" d="M201,21.999999999999996h12v178h-12Z" fill="#d4b2a1" stroke-width="1.3330748839555924"/><path aria-label="x: algorithm; y: 4.4" role="graphics-symbol" aria-roledescription="bar" d="M3.0000000000000053,156h12v44h-12Z" fill="#bbbdb4" stroke-width="1.3330748839555924"/><path aria-label="x: movements; y: 10.8" role="graphics-symbol" aria-roledescription="bar" d="M165,92h12v108h-12Z" fill="#eaa177" stroke-width="1.3330748839555924"/><path aria-label="x: duty; y: 16.8" role="graphics-symbol" aria-roledescription="bar" d="M39.00000000000001,31.999999999999986h12v168h-12Z" fill="#c9b598" stroke-width="1.3330748839555924"/><path aria-label="x: boiler; y: 11.6" role="graphics-symbol" aria-roledescription="bar" d="M21.000000000000007,84.00000000000001h12v115.99999999999999h-12Z" fill="#001b76" stroke-width="1.3330748839555924"/><path aria-label="x: west; y: 0.8" role="graphics-symbol" aria-roledescription="bar" d="M345,192h12v8h-12Z" fill="#c8beae" stroke-width="1.3330748839555924"/><path aria-label="x: trim; y: 13.8" role="graphics-symbol" aria-roledescription="bar" d="M291,61.999999999999986h12v138h-12Z" fill="#9a0800" stroke-width="1.3330748839555924"/><path aria-label="x: maximum; y: 0.8" role="graphics-symbol" aria-roledescription="bar" d="M147,192h12v8h-12Z" fill="#aa2b0b" stroke-width="1.3330748839555924"/><path aria-label="x: rinse; y: 18.6" role="graphics-symbol" aria-roledescription="bar" d="M237,13.99999999999999h12v186h-12Z" fill="#ad9585" stroke-width="1.3330748839555924"/></g><g class="mark-group role-legend" role="graphics-symbol" aria-roledescription="legend" aria-label="Symbol legend for fill color with 20 values: algorithm, boiler, duty, ear, foot, ending with west"><g transform="translate(378,0)"><path class="background" aria-hidden="true" d="M0,0h14v178h-14Z" pointer-events="none"/><g><g class="mark-group role-legend-entry"><g transform="translate(0,0)"><path class="background" aria-hidden="true" d="M0,0h0v0h0Z" pointer-events="none"/><g><g class="mark-group role-scope" role="graphics-object" aria-roledescription="group mark container"><g transform="translate(0,0)"><path class="background" aria-hidden="true" d="M0,0h14v6.333074883955592h-14Z" pointer-events="none" opacity="1"/><g><g class="mark-symbol role-legend-symbol" pointer-events="none"><path transform="translate(5,5)" d="M0,0h0v0h0Z" fill="#bbbdb4" stroke-width="1.3330748839555924" opacity="1"/></g><g class="mark-text role-legend-label" pointer-events="none"><text text-anchor="start" transform="translate(14,5)" font-family="sans-serif" font-size="0px" fill="#000" opacity="1">algorithm</text></g></g><path class="foreground" aria-hidden="true" d="" pointer-events="none" display="none"/></g><g transform="translate(0,9)"><path class="background" aria-hidden="true" d="M0,0h14v6.333074883955593h-14Z" pointer-events="none" opacity="1"/><g><g class="mark-symbol role-legend-symbol" pointer-events="none"><path transform="translate(5,5)" d="M0,0h0v0h0Z" fill="#001b76" stroke-width="1.3330748839555924" opacity="1"/></g><g class="mark-text role-legend-label" pointer-events="none"><text text-anchor="start" transform="translate(14,5)" font-family="sans-serif" font-size="0px" fill="#000" opacity="1">boiler</text></g></g><path class="foreground" aria-hidden="true" d="" pointer-events="none" display="none"/></g><g transform="translate(0,18)"><path class="background" aria-hidden="true" d="M0,0h14v6.333074883955593h-14Z" pointer-events="none" opacity="1"/><g><g class="mark-symbol role-legend-symbol" pointer-events="none"><path transform="translate(5,5)" d="M0,0h0v0h0Z" fill="#c9b598" stroke-width="1.3330748839555924" opacity="1"/></g><g class="mark-text role-legend-label" pointer-events="none"><text text-anchor="start" transform="translate(14,5)" font-family="sans-serif" font-size="0px" fill="#000" opacity="1">duty</text></g></g><path class="foreground" aria-hidden="true" d="" pointer-events="none" display="none"/></g><g transform="translate(0,27)"><path class="background" aria-hidden="true" d="M0,0h14v6.3330748839555895h-14Z" pointer-events="none" opacity="1"/><g><g class="mark-symbol role-legend-symbol" pointer-events="none"><path transform="translate(5,5)" d="M0,0h0v0h0Z" fill="#854059" stroke-width="1.3330748839555924" opacity="1"/></g><g class="mark-text role-legend-label" pointer-events="none"><text text-anchor="start" transform="translate(14,5)" font-family="sans-serif" font-size="0px" fill="#000" opacity="1">ear</text></g></g><path class="foreground" aria-hidden="true" d="" pointer-events="none" display="none"/></g><g transform="translate(0,36)"><path class="background" aria-hidden="true" d="M0,0h14v6.3330748839555895h-14Z" pointer-events="none" opacity="1"/><g><g class="mark-symbol role-legend-symbol" pointer-events="none"><path transform="translate(5,5)" d="M0,0h0v0h0Z" fill="#252900" stroke-width="1.3330748839555924" opacity="1"/></g><g class="mark-text role-legend-label" pointer-events="none"><text text-anchor="start" transform="translate(14,5)" font-family="sans-serif" font-size="0px" fill="#000" opacity="1">foot</text></g></g><path class="foreground" aria-hidden="true" d="" pointer-events="none" display="none"/></g><g transform="translate(0,45)"><path class="background" aria-hidden="true" d="M0,0h14v6.3330748839555895h-14Z" pointer-events="none" opacity="1"/><g><g class="mark-symbol role-legend-symbol" pointer-events="none"><path transform="translate(5,5)" d="M0,0h0v0h0Z" fill="#bac588" stroke-width="1.3330748839555924" opacity="1"/></g><g class="mark-text role-legend-label" pointer-events="none"><text text-anchor="start" transform="translate(14,5)" font-family="sans-serif" font-size="0px" fill="#000" opacity="1">holds</text></g></g><path class="foreground" aria-hidden="true" d="" pointer-events="none" display="none"/></g><g transform="translate(0,54)"><path class="background" aria-hidden="true" d="M0,0h14v6.3330748839555895h-14Z" pointer-events="none" opacity="1"/><g><g class="mark-symbol role-legend-symbol" pointer-events="none"><path transform="translate(5,5)" d="M0,0h0v0h0Z" fill="#947360" stroke-width="1.3330748839555924" opacity="1"/></g><g class="mark-text role-legend-label" pointer-events="none"><text text-anchor="start" transform="translate(14,5)" font-family="sans-serif" font-size="0px" fill="#000" opacity="1">hyphen</text></g></g><path class="foreground" aria-hidden="true" d="" pointer-events="none" display="none"/></g><g transform="translate(0,63)"><path class="background" aria-hidden="true" d="M0,0h14v6.3330748839555895h-14Z" pointer-events="none" opacity="1"/><g><g class="mark-symbol role-legend-symbol" pointer-events="none"><path transform="translate(5,5)" d="M0,0h0v0h0Z" fill="#2d0e00" stroke-width="1.3330748839555924" opacity="1"/></g><g class="mark-text role-legend-label" pointer-events="none"><text text-anchor="start" transform="translate(14,5)" font-family="sans-serif" font-size="0px" fill="#000" opacity="1">income</text></g></g><path class="foreground" aria-hidden="true" d="" pointer-events="none" display="none"/></g><g transform="translate(0,72)"><path class="background" aria-hidden="true" d="M0,0h14v6.3330748839555895h-14Z" pointer-events="none" opacity="1"/><g><g class="mark-symbol role-legend-symbol" pointer-events="none"><path transform="translate(5,5)" d="M0,0h0v0h0Z" fill="#aa2b0b" stroke-width="1.3330748839555924" opacity="1"/></g><g class="mark-text role-legend-label" pointer-events="none"><text text-anchor="start" transform="translate(14,5)" font-family="sans-serif" font-size="0px" fill="#000" opacity="1">maximum</text></g></g><path class="foreground" aria-hidden="true" d="" pointer-events="none" display="none"/></g><g transform="translate(0,81)"><path class="background" aria-hidden="true" d="M0,0h14v6.3330748839555895h-14Z" pointer-events="none" opacity="1"/><g><g class="mark-symbol role-legend-symbol" pointer-events="none"><path transform="translate(5,5)" d="M0,0h0v0h0Z" fill="#eaa177" stroke-width="1.3330748839555924" opacity="1"/></g><g class="mark-text role-legend-label" pointer-events="none"><text text-anchor="start" transform="translate(14,5)" font-family="sans-serif" font-size="0px" fill="#000" opacity="1">movements</text></g></g><path class="foreground" aria-hidden="true" d="" pointer-events="none" display="none"/></g><g transform="translate(0,90)"><path class="background" aria-hidden="true" d="M0,0h14v6.3330748839555895h-14Z" pointer-events="none" opacity="1"/><g><g class="mark-symbol role-legend-symbol" pointer-events="none"><path transform="translate(5,5)" d="M0,0h0v0h0Z" fill="#937c6f" stroke-width="1.3330748839555924" opacity="1"/></g><g class="mark-text role-legend-label" pointer-events="none"><text text-anchor="start" transform="translate(14,5)" font-family="sans-serif" font-size="0px" fill="#000" opacity="1">pads</text></g></g><path class="foreground" aria-hidden="true" d="" pointer-events="none" display="none"/></g><g transform="translate(0,99)"><path class="background" aria-hidden="true" d="M0,0h14v6.3330748839555895h-14Z" pointer-events="none" opacity="1"/><g><g class="mark-symbol role-legend-symbol" pointer-events="none"><path transform="translate(5,5)" d="M0,0h0v0h0Z" fill="#d4b2a1" stroke-width="1.3330748839555924" opacity="1"/></g><g class="mark-text role-legend-label" pointer-events="none"><text text-anchor="start" transform="translate(14,5)" font-family="sans-serif" font-size="0px" fill="#000" opacity="1">passivation</text></g></g><path class="foreground" aria-hidden="true" d="" pointer-events="none" display="none"/></g><g transform="translate(0,108)"><path class="background" aria-hidden="true" d="M0,0h14v6.3330748839555895h-14Z" pointer-events="none" opacity="1"/><g><g class="mark-symbol role-legend-symbol" pointer-events="none"><path transform="translate(5,5)" d="M0,0h0v0h0Z" fill="#e5cfbe" stroke-width="1.3330748839555924" opacity="1"/></g><g class="mark-text role-legend-label" pointer-events="none"><text text-anchor="start" transform="translate(14,5)" font-family="sans-serif" font-size="0px" fill="#000" opacity="1">polishers</text></g></g><path class="foreground" aria-hidden="true" d="" pointer-events="none" display="none"/></g><g transform="translate(0,117)"><path class="background" aria-hidden="true" d="M0,0h14v6.3330748839555895h-14Z" pointer-events="none" opacity="1"/><g><g class="mark-symbol role-legend-symbol" pointer-events="none"><path transform="translate(5,5)" d="M0,0h0v0h0Z" fill="#ad9585" stroke-width="1.3330748839555924" opacity="1"/></g><g class="mark-text role-legend-label" pointer-events="none"><text text-anchor="start" transform="translate(14,5)" font-family="sans-serif" font-size="0px" fill="#000" opacity="1">rinse</text></g></g><path class="foreground" aria-hidden="true" d="" pointer-events="none" display="none"/></g><g transform="translate(0,126)"><path class="background" aria-hidden="true" d="M0,0h14v6.3330748839555895h-14Z" pointer-events="none" opacity="1"/><g><g class="mark-symbol role-legend-symbol" pointer-events="none"><path transform="translate(5,5)" d="M0,0h0v0h0Z" fill="#ca663f" stroke-width="1.3330748839555924" opacity="1"/></g><g class="mark-text role-legend-label" pointer-events="none"><text text-anchor="start" transform="translate(14,5)" font-family="sans-serif" font-size="0px" fill="#000" opacity="1">stools</text></g></g><path class="foreground" aria-hidden="true" d="" pointer-events="none" display="none"/></g><g transform="translate(0,135)"><path class="background" aria-hidden="true" d="M0,0h14v6.3330748839555895h-14Z" pointer-events="none" opacity="1"/><g><g class="mark-symbol role-legend-symbol" pointer-events="none"><path transform="translate(5,5)" d="M0,0h0v0h0Z" fill="#b7b1a4" stroke-width="1.3330748839555924" opacity="1"/></g><g class="mark-text role-legend-label" pointer-events="none"><text text-anchor="start" transform="translate(14,5)" font-family="sans-serif" font-size="0px" fill="#000" opacity="1">throttle</text></g></g><path class="foreground" aria-hidden="true" d="" pointer-events="none" display="none"/></g><g transform="translate(0,144)"><path class="background" aria-hidden="true" d="M0,0h14v6.3330748839555895h-14Z" pointer-events="none" opacity="1"/><g><g class="mark-symbol role-legend-symbol" pointer-events="none"><path transform="translate(5,5)" d="M0,0h0v0h0Z" fill="#9a0800" stroke-width="1.3330748839555924" opacity="1"/></g><g class="mark-text role-legend-label" pointer-events="none"><text text-anchor="start" transform="translate(14,5)" font-family="sans-serif" font-size="0px" fill="#000" opacity="1">trim</text></g></g><path class="foreground" aria-hidden="true" d="" pointer-events="none" display="none"/></g><g transform="translate(0,153)"><path class="background" aria-hidden="true" d="M0,0h14v6.3330748839555895h-14Z" pointer-events="none" opacity="1"/><g><g class="mark-symbol role-legend-symbol" pointer-events="none"><path transform="translate(5,5)" d="M0,0h0v0h0Z" fill="#947c6f" stroke-width="1.3330748839555924" opacity="1"/></g><g class="mark-text role-legend-label" pointer-events="none"><text text-anchor="start" transform="translate(14,5)" font-family="sans-serif" font-size="0px" fill="#000" opacity="1">unit</text></g></g><path class="foreground" aria-hidden="true" d="" pointer-events="none" display="none"/></g><g transform="translate(0,162)"><path class="background" aria-hidden="true" d="M0,0h14v6.3330748839555895h-14Z" pointer-events="none" opacity="1"/><g><g class="mark-symbol role-legend-symbol" pointer-events="none"><path transform="translate(5,5)" d="M0,0h0v0h0Z" fill="#d2a235" stroke-width="1.3330748839555924" opacity="1"/></g><g class="mark-text role-legend-label" pointer-events="none"><text text-anchor="start" transform="translate(14,5)" font-family="sans-serif" font-size="0px" fill="#000" opacity="1">washers</text></g></g><path class="foreground" aria-hidden="true" d="" pointer-events="none" display="none"/></g><g transform="translate(0,171)"><path class="background" aria-hidden="true" d="M0,0h14v6.3330748839555895h-14Z" pointer-events="none" opacity="1"/><g><g class="mark-symbol role-legend-symbol" pointer-events="none"><path transform="translate(5,5)" d="M0,0h0v0h0Z" fill="#c8beae" stroke-width="1.3330748839555924" opacity="1"/></g><g class="mark-text role-legend-label" pointer-events="none"><text text-anchor="start" transform="translate(14,5)" font-family="sans-serif" font-size="0px" fill="#000" opacity="1">west</text></g></g><path class="foreground" aria-hidden="true" d="" pointer-events="none" display="none"/></g></g></g><path class="foreground" aria-hidden="true" d="" pointer-events="none" display="none"/></g></g></g><path class="foreground" aria-hidden="true" d="" pointer-events="none" display="none"/></g></g><g class="mark-group role-title"><g transform="translate(180,-25)"><path class="background" aria-hidden="true" d="M0,0h0v0h0Z" pointer-events="none"/><g><g class="mark-text role-title-text" role="graphics-symbol" aria-roledescription="title" aria-label="Title text 'analyzer sneezes'" pointer-events="none"><text text-anchor="middle" transform="translate(0,13)" font-family="Tahoma" font-size="17px" font-style="normal" font-weight="bold" fill="#000000" opacity="1">analyzer sneezes</text></g></g><path class="foreground" aria-hidden="true" d="" pointer-events="none" display="none"/></g></g></g><path class="foreground" aria-hidden="true" d="" display="none"/></g></g></g></svg>