<svg class="marks" width="400" height="263" viewBox="0 0 400 263" version="1.1" xmlns="http://www.w3.org/2000/svg" xmlns:xlink="http://www.w3.org/1999/xlink"><rect width="400" height="263" style="fill: #ffe8ca;"></rect><g transform="translate(31,42)"><g class="mark-group role-frame root"><g transform="translate(0,0)"><path class="background" d="M0.5,0.5h329v200h-329Z" style="fill: none; stroke: #ddd;"></path><g><g class="mark-group role-axis"><g transform="translate(0.5,200.5)"><path class="background" d="M0,0h0v0h0Z" style="pointer-events: none; fill: none;"></path><g><g class="mark-rule role-axis-grid" style="pointer-events: none;"><line transform="translate(34,-200)" x2="0" y2="200" style="fill: none; stroke: #000000; stroke-opacity: 0.6801411937034172; stroke-width: 0.3999203721708017; opacity: 1;"></line><line transform="translate(69,-200)" x2="0" y2="200" style="fill: none; stroke: #000000; stroke-opacity: 0.6801411937034172; stroke-width: 0.3999203721708017; opacity: 1;"></line><line transform="translate(103,-200)" x2="0" y2="200" style="fill: none; stroke: #000000; stroke-opacity: 0.6801411937034172; stroke-width: 0.3999203721708017; opacity: 1;"></line><line transform="translate(137,-200)" x2="0" y2="200" style="fill: none; stroke: #000000; stroke-opacity: 0.6801411937034172; stroke-width: 0.3999203721708017; opacity: 1;"></line><line transform="translate(171,-200)" x2="0" y2="200" style="fill: none; stroke: #000000; stroke-opacity: 0.6801411937034172; stroke-width: 0.3999203721708017; opacity: 1;"></line><line transform="translate(206,-200)" x2="0" y2="200" style="fill: none; stroke: #000000; stroke-opacity: 0.6801411937034172; stroke-width: 0.3999203721708017; opacity: 1;"></line><line transform="translate(240,-200)" x2="0" y2="200" style="fill: none; stroke: #000000; stroke-opacity: 0.6801411937034172; stroke-width: 0.3999203721708017; opacity: 1;"></line><line transform="translate(274,-200)" x2="0" y2="200" style="fill: none; stroke: #000000; stroke-opacity: 0.6801411937034172; stroke-width: 0.3999203721708017; opacity: 1;"></line><line transform="translate(308,-200)" x2="0" y2="200" style="fill: none; stroke: #000000; stroke-opacity: 0.6801411937034172; stroke-width: 0.3999203721708017; opacity: 1;"></line></g></g><path class="foreground" d="" style="pointer-events: none; display: none; fill: none;"></path></g></g><g class="mark-group role-axis"><g transform="translate(0.5,0.5)"><path class="background" d="M0,0h0v0h0Z" style="pointer-events: none; fill: none;"></path><g><g class="mark-rule role-axis-grid" style="pointer-events: none;"><line transform="translate(0,200)" x2="329" y2="0" style="fill: none; stroke: #000000; stroke-opacity: 0.23203027694777292; stroke-width: 1.2011162124579007; opacity: 1;"></line><line transform="translate(0,175)" x2="329" y2="0" style="fill: none; stroke: #000000; stroke-opacity: 0.23203027694777292; stroke-width: 1.2011162124579007; opacity: 1;"></line><line transform="translate(0,150)" x2="329" y2="0" style="fill: none; stroke: #000000; stroke-opacity: 0.23203027694777292; stroke-width: 1.2011162124579007; opacity: 1;"></line><line transform="translate(0,125)" x2="329" y2="0" style="fill: none; stroke: #000000; stroke-opacity: 0.23203027694777292; stroke-width: 1.2011162124579007; opacity: 1;"></line><line transform="translate(0,100)" x2="329" y2="0" style="fill: none; stroke: #000000; stroke-opacity: 0.23203027694777292; stroke-width: 1.2011162124579007; opacity: 1;"></line><line transform="translate(0,75)" x2="329" y2="0" style="fill: none; stroke: #000000; stroke-opacity: 0.23203027694777292; stroke-width: 1.2011162124579007; opacity: 1;"></line><line transform="translate(0,50)" x2="329" y2="0" style="fill: none; stroke: #000000; stroke-opacity: 0.23203027694777292; stroke-width: 1.2011162124579007; opacity: 1;"></line><line transform="translate(0,25)" x2="329" y2="0" style="fill: none; stroke: #000000; stroke-opacity: 0.23203027694777292; stroke-width: 1.2011162124579007; opacity: 1;"></line><line transform="translate(0,0)" x2="329" y2="0" style="fill: none; stroke: #000000; stroke-opacity: 0.23203027694777292; stroke-width: 1.2011162124579007; opacity: 1;"></line></g></g><path class="foreground" d="" style="pointer-events: none; display: none; fill: none;"></path></g></g><g class="mark-group role-axis"><g transform="translate(0.5,200.5)"><path class="background" d="M0,0h0v0h0Z" style="pointer-events: none; fill: none;"></path><g><g class="mark-text role-axis-label" style="pointer-events: none;"><text text-anchor="middle" transform="translate(34.263600519065676,14)" style="font-family: Verdana; font-size: 11px; fill: #000; opacity: 1;">1910</text><text text-anchor="middle" transform="translate(68.53071970453185,14)" style="font-family: Verdana; font-size: 11px; fill: #000; opacity: 1;">1920</text><text text-anchor="middle" transform="translate(102.80722200039929,14)" style="font-family: Verdana; font-size: 11px; fill: #000; opacity: 1;">1930</text><text text-anchor="middle" transform="translate(137.07434118586545,14)" style="font-family: Verdana; font-size: 11px; fill: #000; opacity: 1;">1940</text><text text-anchor="middle" transform="translate(171.3508434817329,14)" style="font-family: Verdana; font-size: 11px; fill: #000; opacity: 1;">1950</text><text text-anchor="middle" transform="translate(205.61796266719904,14)" style="font-family: Verdana; font-size: 11px; fill: #000; opacity: 1;">1960</text><text text-anchor="middle" transform="translate(239.89446496306647,14)" style="font-family: Verdana; font-size: 11px; fill: #000; opacity: 1;">1970</text><text text-anchor="middle" transform="translate(274.1615841485326,14)" style="font-family: Verdana; font-size: 11px; fill: #000; opacity: 1;">1980</text><text text-anchor="middle" transform="translate(308.4380864444001,14)" style="font-family: Verdana; font-size: 11px; fill: #000; opacity: 1;">1990</text></g><g class="mark-rule role-axis-domain" style="pointer-events: none;"><line transform="translate(0,0)" x2="329" y2="0" style="fill: none; stroke: #888; stroke-width: 1; opacity: 1;"></line></g></g><path class="foreground" d="" style="pointer-events: none; display: none; fill: none;"></path></g></g><g class="mark-group role-axis"><g transform="translate(0.5,0.5)"><path class="background" d="M0,0h0v0h0Z" style="pointer-events: none; fill: none;"></path><g><g class="mark-text role-axis-label" style="pointer-events: none;"><text text-anchor="end" transform="translate(-2,205)" style="font-family: Impact; font-size: 16px; fill: #000; opacity: 1;">0</text><text text-anchor="end" transform="translate(-2,180)" style="font-family: Impact; font-size: 16px; fill: #000; opacity: 1;">20</text><text text-anchor="end" transform="translate(-2,155)" style="font-family: Impact; font-size: 16px; fill: #000; opacity: 1;">40</text><text text-anchor="end" transform="translate(-2,130)" style="font-family: Impact; font-size: 16px; fill: #000; opacity: 1;">60</text><text text-anchor="end" transform="translate(-2,105)" style="font-family: Impact; font-size: 16px; fill: #000; opacity: 1;">80</text><text text-anchor="end" transform="translate(-2,80)" style="font-family: Impact; font-size: 16px; fill: #000; opacity: 1;">100</text><text text-anchor="end" transform="translate(-2,55)" style="font-family: Impact; font-size: 16px; fill: #000; opacity: 1;">120</text><text text-anchor="end" transform="translate(-2,30)" style="font-family: Impact; font-size: 16px; fill: #000; opacity: 1;">140</text><text text-anchor="end" transform="translate(-2,5)" style="font-family: Impact; font-size: 16px; fill: #000; opacity: 1;">160</text></g><g class="mark-rule role-axis-domain" style="pointer-events: none;"><line transform="translate(0,200)" x2="0" y2="-200" style="fill: none; stroke: #888; stroke-width: 1; opacity: 1;"></line></g></g><path class="foreground" d="" style="pointer-events: none; display: none; fill: none;"></path></g></g><g class="mark-group role-scope layer_0_pathgroup"><g transform="translate(0,0)"><path class="background" d="M0,0h329v200h-329Z" style="fill: none;"></path><g><g class="mark-line role-mark layer_0_marks"><path d="M0,55.00000000000001L20.55839488919944,13.749999999999996L41.11678977839888,55.00000000000001L61.684567777999604,70L82.24296266719904,50L102.81074066679976,110.00000000000001L123.36913555599921,76.25L143.93691355559992,105L164.49530844479938,30.000000000000004L185.06308644440008,21.249999999999993L205.62148133359952,46.24999999999999L226.18925933320023,51.24999999999999L246.7476542223997,77.49999999999999L267.31543222200037,68.75L287.87382711119983,64.99999999999999L308.44160511080054,112.5L329,126.25" style="fill: none; fill-opacity: 1; stroke: #bbbdb4; stroke-width: 2.6492331552848802;"></path></g></g><path class="foreground" d="" style="display: none; fill: none;"></path></g><g transform="translate(0,0)"><path class="background" d="M0,0h329v200h-329Z" style="fill: none;"></path><g><g class="mark-line role-mark layer_0_marks"><path d="M0,86.25L20.55839488919944,126.25L41.11678977839888,31.25L61.684567777999604,121.24999999999999L82.24296266719904,76.25L102.81074066679976,123.75L123.36913555599921,98.75L143.93691355559992,125L164.49530844479938,130L185.06308644440008,151.25L205.62148133359952,64.99999999999999L226.18925933320023,101.25L246.7476542223997,145L267.31543222200037,91.25000000000001L287.87382711119983,126.25L308.44160511080054,60.00000000000001L329,170" style="fill: none; fill-opacity: 1; stroke: #001b76; stroke-width: 2.6492331552848802;"></path></g></g><path class="foreground" d="" style="display: none; fill: none;"></path></g></g><g class="mark-symbol role-mark layer_1_marks"><path transform="translate(0,55.00000000000001)" d="M2.7386127875258306,0A2.7386127875258306,2.7386127875258306,0,1,1,-2.7386127875258306,0A2.7386127875258306,2.7386127875258306,0,1,1,2.7386127875258306,0" style="fill: #bbbdb4; stroke-width: 2; opacity: 1;"></path><path transform="translate(20.55839488919944,13.749999999999996)" d="M2.7386127875258306,0A2.7386127875258306,2.7386127875258306,0,1,1,-2.7386127875258306,0A2.7386127875258306,2.7386127875258306,0,1,1,2.7386127875258306,0" style="fill: #bbbdb4; stroke-width: 2; opacity: 1;"></path><path transform="translate(41.11678977839888,55.00000000000001)" d="M2.7386127875258306,0A2.7386127875258306,2.7386127875258306,0,1,1,-2.7386127875258306,0A2.7386127875258306,2.7386127875258306,0,1,1,2.7386127875258306,0" style="fill: #bbbdb4; stroke-width: 2; opacity: 1;"></path><path transform="translate(61.684567777999604,70)" d="M2.7386127875258306,0A2.7386127875258306,2.7386127875258306,0,1,1,-2.7386127875258306,0A2.7386127875258306,2.7386127875258306,0,1,1,2.7386127875258306,0" style="fill: #bbbdb4; stroke-width: 2; opacity: 1;"></path><path transform="translate(82.24296266719904,50)" d="M2.7386127875258306,0A2.7386127875258306,2.7386127875258306,0,1,1,-2.7386127875258306,0A2.7386127875258306,2.7386127875258306,0,1,1,2.7386127875258306,0" style="fill: #bbbdb4; stroke-width: 2; opacity: 1;"></path><path transform="translate(102.81074066679976,110.00000000000001)" d="M2.7386127875258306,0A2.7386127875258306,2.7386127875258306,0,1,1,-2.7386127875258306,0A2.7386127875258306,2.7386127875258306,0,1,1,2.7386127875258306,0" style="fill: #bbbdb4; stroke-width: 2; opacity: 1;"></path><path transform="translate(123.36913555599921,76.25)" d="M2.7386127875258306,0A2.7386127875258306,2.7386127875258306,0,1,1,-2.7386127875258306,0A2.7386127875258306,2.7386127875258306,0,1,1,2.7386127875258306,0" style="fill: #bbbdb4; stroke-width: 2; opacity: 1;"></path><path transform="translate(143.93691355559992,105)" d="M2.7386127875258306,0A2.7386127875258306,2.7386127875258306,0,1,1,-2.7386127875258306,0A2.7386127875258306,2.7386127875258306,0,1,1,2.7386127875258306,0" style="fill: #bbbdb4; stroke-width: 2; opacity: 1;"></path><path transform="translate(164.49530844479938,30.000000000000004)" d="M2.7386127875258306,0A2.7386127875258306,2.7386127875258306,0,1,1,-2.7386127875258306,0A2.7386127875258306,2.7386127875258306,0,1,1,2.7386127875258306,0" style="fill: #bbbdb4; stroke-width: 2; opacity: 1;"></path><path transform="translate(185.06308644440008,21.249999999999993)" d="M2.7386127875258306,0A2.7386127875258306,2.7386127875258306,0,1,1,-2.7386127875258306,0A2.7386127875258306,2.7386127875258306,0,1,1,2.7386127875258306,0" style="fill: #bbbdb4; stroke-width: 2; opacity: 1;"></path><path transform="translate(205.62148133359952,46.24999999999999)" d="M2.7386127875258306,0A2.7386127875258306,2.7386127875258306,0,1,1,-2.7386127875258306,0A2.7386127875258306,2.7386127875258306,0,1,1,2.7386127875258306,0" style="fill: #bbbdb4; stroke-width: 2; opacity: 1;"></path><path transform="translate(226.18925933320023,51.24999999999999)" d="M2.7386127875258306,0A2.7386127875258306,2.7386127875258306,0,1,1,-2.7386127875258306,0A2.7386127875258306,2.7386127875258306,0,1,1,2.7386127875258306,0" style="fill: #bbbdb4; stroke-width: 2; opacity: 1;"></path><path transform="translate(246.7476542223997,77.49999999999999)" d="M2.7386127875258306,0A2.7386127875258306,2.7386127875258306,0,1,1,-2.7386127875258306,0A2.7386127875258306,2.7386127875258306,0,1,1,2.7386127875258306,0" style="fill: #bbbdb4; stroke-width: 2; opacity: 1;"></path><path transform="translate(267.31543222200037,68.75)" d="M2.7386127875258306,0A2.7386127875258306,2.7386127875258306,0,1,1,-2.7386127875258306,0A2.7386127875258306,2.7386127875258306,0,1,1,2.7386127875258306,0" style="fill: #bbbdb4; stroke-width: 2; opacity: 1;"></path><path transform="translate(287.87382711119983,64.99999999999999)" d="M2.7386127875258306,0A2.7386127875258306,2.7386127875258306,0,1,1,-2.7386127875258306,0A2.7386127875258306,2.7386127875258306,0,1,1,2.7386127875258306,0" style="fill: #bbbdb4; stroke-width: 2; opacity: 1;"></path><path transform="translate(308.44160511080054,112.5)" d="M2.7386127875258306,0A2.7386127875258306,2.7386127875258306,0,1,1,-2.7386127875258306,0A2.7386127875258306,2.7386127875258306,0,1,1,2.7386127875258306,0" style="fill: #bbbdb4; stroke-width: 2; opacity: 1;"></path><path transform="translate(329,126.25)" d="M2.7386127875258306,0A2.7386127875258306,2.7386127875258306,0,1,1,-2.7386127875258306,0A2.7386127875258306,2.7386127875258306,0,1,1,2.7386127875258306,0" style="fill: #bbbdb4; stroke-width: 2; opacity: 1;"></path><path transform="translate(0,86.25)" d="M2.7386127875258306,0A2.7386127875258306,2.7386127875258306,0,1,1,-2.7386127875258306,0A2.7386127875258306,2.7386127875258306,0,1,1,2.7386127875258306,0" style="fill: #001b76; stroke-width: 2; opacity: 1;"></path><path transform="translate(20.55839488919944,126.25)" d="M2.7386127875258306,0A2.7386127875258306,2.7386127875258306,0,1,1,-2.7386127875258306,0A2.7386127875258306,2.7386127875258306,0,1,1,2.7386127875258306,0" style="fill: #001b76; stroke-width: 2; opacity: 1;"></path><path transform="translate(41.11678977839888,31.25)" d="M2.7386127875258306,0A2.7386127875258306,2.7386127875258306,0,1,1,-2.7386127875258306,0A2.7386127875258306,2.7386127875258306,0,1,1,2.7386127875258306,0" style="fill: #001b76; stroke-width: 2; opacity: 1;"></path><path transform="translate(61.684567777999604,121.24999999999999)" d="M2.7386127875258306,0A2.7386127875258306,2.7386127875258306,0,1,1,-2.7386127875258306,0A2.7386127875258306,2.7386127875258306,0,1,1,2.7386127875258306,0" style="fill: #001b76; stroke-width: 2; opacity: 1;"></path><path transform="translate(82.24296266719904,76.25)" d="M2.7386127875258306,0A2.7386127875258306,2.7386127875258306,0,1,1,-2.7386127875258306,0A2.7386127875258306,2.7386127875258306,0,1,1,2.7386127875258306,0" style="fill: #001b76; stroke-width: 2; opacity: 1;"></path><path transform="translate(102.81074066679976,123.75)" d="M2.7386127875258306,0A2.7386127875258306,2.7386127875258306,0,1,1,-2.7386127875258306,0A2.7386127875258306,2.7386127875258306,0,1,1,2.7386127875258306,0" style="fill: #001b76; stroke-width: 2; opacity: 1;"></path><path transform="translate(123.36913555599921,98.75)" d="M2.7386127875258306,0A2.7386127875258306,2.7386127875258306,0,1,1,-2.7386127875258306,0A2.7386127875258306,2.7386127875258306,0,1,1,2.7386127875258306,0" style="fill: #001b76; stroke-width: 2; opacity: 1;"></path><path transform="translate(143.93691355559992,125)" d="M2.7386127875258306,0A2.7386127875258306,2.7386127875258306,0,1,1,-2.7386127875258306,0A2.7386127875258306,2.7386127875258306,0,1,1,2.7386127875258306,0" style="fill: #001b76; stroke-width: 2; opacity: 1;"></path><path transform="translate(164.49530844479938,130)" d="M2.7386127875258306,0A2.7386127875258306,2.7386127875258306,0,1,1,-2.7386127875258306,0A2.7386127875258306,2.7386127875258306,0,1,1,2.7386127875258306,0" style="fill: #001b76; stroke-width: 2; opacity: 1;"></path><path transform="translate(185.06308644440008,151.25)" d="M2.7386127875258306,0A2.7386127875258306,2.7386127875258306,0,1,1,-2.7386127875258306,0A2.7386127875258306,2.7386127875258306,0,1,1,2.7386127875258306,0" style="fill: #001b76; stroke-width: 2; opacity: 1;"></path><path transform="translate(205.62148133359952,64.99999999999999)" d="M2.7386127875258306,0A2.7386127875258306,2.7386127875258306,0,1,1,-2.7386127875258306,0A2.7386127875258306,2.7386127875258306,0,1,1,2.7386127875258306,0" style="fill: #001b76; stroke-width: 2; opacity: 1;"></path><path transform="translate(226.18925933320023,101.25)" d="M2.7386127875258306,0A2.7386127875258306,2.7386127875258306,0,1,1,-2.7386127875258306,0A2.7386127875258306,2.7386127875258306,0,1,1,2.7386127875258306,0" style="fill: #001b76; stroke-width: 2; opacity: 1;"></path><path transform="translate(246.7476542223997,145)" d="M2.7386127875258306,0A2.7386127875258306,2.7386127875258306,0,1,1,-2.7386127875258306,0A2.7386127875258306,2.7386127875258306,0,1,1,2.7386127875258306,0" style="fill: #001b76; stroke-width: 2; opacity: 1;"></path><path transform="translate(267.31543222200037,91.25000000000001)" d="M2.7386127875258306,0A2.7386127875258306,2.7386127875258306,0,1,1,-2.7386127875258306,0A2.7386127875258306,2.7386127875258306,0,1,1,2.7386127875258306,0" style="fill: #001b76; stroke-width: 2; opacity: 1;"></path><path transform="translate(287.87382711119983,126.25)" d="M2.7386127875258306,0A2.7386127875258306,2.7386127875258306,0,1,1,-2.7386127875258306,0A2.7386127875258306,2.7386127875258306,0,1,1,2.7386127875258306,0" style="fill: #001b76; stroke-width: 2; opacity: 1;"></path><path transform="translate(308.44160511080054,60.00000000000001)" d="M2.7386127875258306,0A2.7386127875258306,2.7386127875258306,0,1,1,-2.7386127875258306,0A2.7386127875258306,2.7386127875258306,0,1,1,2.7386127875258306,0" style="fill: #001b76; stroke-width: 2; opacity: 1;"></path><path transform="translate(329,170)" d="M2.7386127875258306,0A2.7386127875258306,2.7386127875258306,0,1,1,-2.7386127875258306,0A2.7386127875258306,2.7386127875258306,0,1,1,2.7386127875258306,0" style="fill: #001b76; stroke-width: 2; opacity: 1;"></path></g><g class="mark-group role-legend"><g transform="translate(350,0)"><path class="background" d="M0,0h14v18h-14Z" style="pointer-events: none; fill: none;"></path><g><g class="mark-group role-legend-entry"><g transform="translate(0,0)"><path class="background" d="M0,0h0v0h0Z" style="pointer-events: none; fill: none;"></path><g><g class="mark-group role-scope"><g transform="translate(0,0)"><path class="background" d="M0,0h14v7.649233155284881h-14Z" style="pointer-events: none; fill: none; opacity: 1;"></path><g><g class="mark-symbol role-legend-symbol" style="pointer-events: none;"><path transform="translate(5,5)" d="M0,0" style="fill: #bbbdb4; fill-opacity: 1; stroke: #bbbdb4; stroke-width: 2.6492331552848802; opacity: 1;"></path></g><g class="mark-text role-legend-label" style="pointer-events: none;"><text text-anchor="start" transform="translate(14,5)" style="font-family: sans-serif; font-size: 0px; fill: #000; opacity: 1;">symbol_0</text></g></g><path class="foreground" d="" style="pointer-events: none; display: none; fill: none;"></path></g><g transform="translate(0,10)"><path class="background" d="M0,0h14v7.6492331552848825h-14Z" style="pointer-events: none; fill: none; opacity: 1;"></path><g><g class="mark-symbol role-legend-symbol" style="pointer-events: none;"><path transform="translate(5,5)" d="M0,0" style="fill: #001b76; fill-opacity: 1; stroke: #001b76; stroke-width: 2.6492331552848802; opacity: 1;"></path></g><g class="mark-text role-legend-label" style="pointer-events: none;"><text text-anchor="start" transform="translate(14,5)" style="font-family: sans-serif; font-size: 0px; fill: #000; opacity: 1;">symbol_1</text></g></g><path class="foreground" d="" style="pointer-events: none; display: none; fill: none;"></path></g></g></g><path class="foreground" d="" style="pointer-events: none; display: none; fill: none;"></path></g></g></g><path class="foreground" d="" style="pointer-events: none; display: none; fill: none;"></path></g></g><g class="mark-group role-title"><g transform="translate(164.5,-37)"><path class="background" d="M0,0h0v0h0Z" style="pointer-events: none; fill: none;"></path><g><g class="mark-text role-title-text" style="pointer-events: none;"><text text-anchor="middle" transform="translate(0,12)" style="font-family: Gill Sans; font-size: 15px; font-style: italic; font-weight: bold; fill: #000000; opacity: 1;">MACHINERY MITTEN</text></g></g><path class="foreground" d="" style="pointer-events: none; display: none; fill: none;"></path></g></g></g><path class="foreground" d="" style="display: none; fill: none;"></path></g></g></g></svg>