<svg class="marks" width="550" height="434" viewBox="0 0 550 434" version="1.1" xmlns="http://www.w3.org/2000/svg" xmlns:xlink="http://www.w3.org/1999/xlink"><rect width="550" height="434" style="fill: #fbfbfb;"></rect><g transform="translate(33,30)"><g class="mark-group role-frame root"><g transform="translate(0,0)"><path class="background" d="M0.5,0.5h479v384h-479Z" style="fill: none; stroke: #ddd;"></path><g><g class="mark-group role-axis"><g transform="translate(0.5,384.5)"><path class="background" d="M0,0h0v0h0Z" style="pointer-events: none; fill: none;"></path><g><g class="mark-rule role-axis-grid" style="pointer-events: none;"><line transform="translate(50,-384)" x2="0" y2="384" style="fill: none; stroke: #000000; stroke-opacity: 0.2811289529620269; stroke-width: 1.450984013684887; opacity: 1;"></line><line transform="translate(101,-384)" x2="0" y2="384" style="fill: none; stroke: #000000; stroke-opacity: 0.2811289529620269; stroke-width: 1.450984013684887; opacity: 1;"></line><line transform="translate(151,-384)" x2="0" y2="384" style="fill: none; stroke: #000000; stroke-opacity: 0.2811289529620269; stroke-width: 1.450984013684887; opacity: 1;"></line><line transform="translate(202,-384)" x2="0" y2="384" style="fill: none; stroke: #000000; stroke-opacity: 0.2811289529620269; stroke-width: 1.450984013684887; opacity: 1;"></line><line transform="translate(252,-384)" x2="0" y2="384" style="fill: none; stroke: #000000; stroke-opacity: 0.2811289529620269; stroke-width: 1.450984013684887; opacity: 1;"></line><line transform="translate(303,-384)" x2="0" y2="384" style="fill: none; stroke: #000000; stroke-opacity: 0.2811289529620269; stroke-width: 1.450984013684887; opacity: 1;"></line><line transform="translate(353,-384)" x2="0" y2="384" style="fill: none; stroke: #000000; stroke-opacity: 0.2811289529620269; stroke-width: 1.450984013684887; opacity: 1;"></line><line transform="translate(403,-384)" x2="0" y2="384" style="fill: none; stroke: #000000; stroke-opacity: 0.2811289529620269; stroke-width: 1.450984013684887; opacity: 1;"></line><line transform="translate(454,-384)" x2="0" y2="384" style="fill: none; stroke: #000000; stroke-opacity: 0.2811289529620269; stroke-width: 1.450984013684887; opacity: 1;"></line></g></g><path class="foreground" d="" style="pointer-events: none; display: none; fill: none;"></path></g></g><g class="mark-group role-axis"><g transform="translate(0.5,0.5)"><path class="background" d="M0,0h0v0h0Z" style="pointer-events: none; fill: none;"></path><g><g class="mark-rule role-axis-grid" style="pointer-events: none;"><line transform="translate(0,384)" x2="479" y2="0" style="fill: none; stroke: #000000; stroke-opacity: 0.4473928323023114; stroke-width: 1.022063217085686; opacity: 1;"></line><line transform="translate(0,367)" x2="479" y2="0" style="fill: none; stroke: #000000; stroke-opacity: 0.4473928323023114; stroke-width: 1.022063217085686; opacity: 1;"></line><line transform="translate(0,349)" x2="479" y2="0" style="fill: none; stroke: #000000; stroke-opacity: 0.4473928323023114; stroke-width: 1.022063217085686; opacity: 1;"></line><line transform="translate(0,332)" x2="479" y2="0" style="fill: none; stroke: #000000; stroke-opacity: 0.4473928323023114; stroke-width: 1.022063217085686; opacity: 1;"></line><line transform="translate(0,314)" x2="479" y2="0" style="fill: none; stroke: #000000; stroke-opacity: 0.4473928323023114; stroke-width: 1.022063217085686; opacity: 1;"></line><line transform="translate(0,297)" x2="479" y2="0" style="fill: none; stroke: #000000; stroke-opacity: 0.4473928323023114; stroke-width: 1.022063217085686; opacity: 1;"></line><line transform="translate(0,279)" x2="479" y2="0" style="fill: none; stroke: #000000; stroke-opacity: 0.4473928323023114; stroke-width: 1.022063217085686; opacity: 1;"></line><line transform="translate(0,262)" x2="479" y2="0" style="fill: none; stroke: #000000; stroke-opacity: 0.4473928323023114; stroke-width: 1.022063217085686; opacity: 1;"></line><line transform="translate(0,244)" x2="479" y2="0" style="fill: none; stroke: #000000; stroke-opacity: 0.4473928323023114; stroke-width: 1.022063217085686; opacity: 1;"></line><line transform="translate(0,227)" x2="479" y2="0" style="fill: none; stroke: #000000; stroke-opacity: 0.4473928323023114; stroke-width: 1.022063217085686; opacity: 1;"></line><line transform="translate(0,209)" x2="479" y2="0" style="fill: none; stroke: #000000; stroke-opacity: 0.4473928323023114; stroke-width: 1.022063217085686; opacity: 1;"></line><line transform="translate(0,192)" x2="479" y2="0" style="fill: none; stroke: #000000; stroke-opacity: 0.4473928323023114; stroke-width: 1.022063217085686; opacity: 1;"></line><line transform="translate(0,175)" x2="479" y2="0" style="fill: none; stroke: #000000; stroke-opacity: 0.4473928323023114; stroke-width: 1.022063217085686; opacity: 1;"></line><line transform="translate(0,157)" x2="479" y2="0" style="fill: none; stroke: #000000; stroke-opacity: 0.4473928323023114; stroke-width: 1.022063217085686; opacity: 1;"></line><line transform="translate(0,140)" x2="479" y2="0" style="fill: none; stroke: #000000; stroke-opacity: 0.4473928323023114; stroke-width: 1.022063217085686; opacity: 1;"></line><line transform="translate(0,122)" x2="479" y2="0" style="fill: none; stroke: #000000; stroke-opacity: 0.4473928323023114; stroke-width: 1.022063217085686; opacity: 1;"></line><line transform="translate(0,105)" x2="479" y2="0" style="fill: none; stroke: #000000; stroke-opacity: 0.4473928323023114; stroke-width: 1.022063217085686; opacity: 1;"></line><line transform="translate(0,87)" x2="479" y2="0" style="fill: none; stroke: #000000; stroke-opacity: 0.4473928323023114; stroke-width: 1.022063217085686; opacity: 1;"></line><line transform="translate(0,70)" x2="479" y2="0" style="fill: none; stroke: #000000; stroke-opacity: 0.4473928323023114; stroke-width: 1.022063217085686; opacity: 1;"></line><line transform="translate(0,52)" x2="479" y2="0" style="fill: none; stroke: #000000; stroke-opacity: 0.4473928323023114; stroke-width: 1.022063217085686; opacity: 1;"></line><line transform="translate(0,35)" x2="479" y2="0" style="fill: none; stroke: #000000; stroke-opacity: 0.4473928323023114; stroke-width: 1.022063217085686; opacity: 1;"></line><line transform="translate(0,17)" x2="479" y2="0" style="fill: none; stroke: #000000; stroke-opacity: 0.4473928323023114; stroke-width: 1.022063217085686; opacity: 1;"></line><line transform="translate(0,0)" x2="479" y2="0" style="fill: none; stroke: #000000; stroke-opacity: 0.4473928323023114; stroke-width: 1.022063217085686; opacity: 1;"></line></g></g><path class="foreground" d="" style="pointer-events: none; display: none; fill: none;"></path></g></g><g class="mark-group role-axis"><g transform="translate(0.5,384.5)"><path class="background" d="M0,0h0v0h0Z" style="pointer-events: none; fill: none;"></path><g><g class="mark-text role-axis-label" style="pointer-events: none;"><text text-anchor="middle" transform="translate(50.41035086076047,13)" style="font-family: Arial; font-size: 12px; fill: #000; opacity: 1;">1910</text><text text-anchor="middle" transform="translate(100.82530333160412,13)" style="font-family: Arial; font-size: 12px; fill: #000; opacity: 1;">1920</text><text text-anchor="middle" transform="translate(151.25434823332756,13)" style="font-family: Arial; font-size: 12px; fill: #000; opacity: 1;">1930</text><text text-anchor="middle" transform="translate(201.66958830480144,13)" style="font-family: Arial; font-size: 12px; fill: #000; opacity: 1;">1940</text><text text-anchor="middle" transform="translate(252.09863320652488,13)" style="font-family: Arial; font-size: 12px; fill: #000; opacity: 1;">1950</text><text text-anchor="middle" transform="translate(302.51416087862896,13)" style="font-family: Arial; font-size: 12px; fill: #000; opacity: 1;">1960</text><text text-anchor="middle" transform="translate(352.94291817972214,13)" style="font-family: Arial; font-size: 12px; fill: #000; opacity: 1;">1970</text><text text-anchor="middle" transform="translate(403.358158251196,13)" style="font-family: Arial; font-size: 12px; fill: #000; opacity: 1;">1980</text><text text-anchor="middle" transform="translate(453.7872031529195,13)" style="font-family: Arial; font-size: 12px; fill: #000; opacity: 1;">1990</text></g><g class="mark-rule role-axis-domain" style="pointer-events: none;"><line transform="translate(0,0)" x2="479" y2="0" style="fill: none; stroke: #888; stroke-width: 1; opacity: 1;"></line></g></g><path class="foreground" d="" style="pointer-events: none; display: none; fill: none;"></path></g></g><g class="mark-group role-axis"><g transform="translate(0.5,0.5)"><path class="background" d="M0,0h0v0h0Z" style="pointer-events: none; fill: none;"></path><g><g class="mark-rule role-axis-tick" style="pointer-events: none;"><line transform="translate(0,384)" x2="-5" y2="0" style="fill: none; stroke: #888; stroke-width: 1; opacity: 1;"></line><line transform="translate(0,367)" x2="-5" y2="0" style="fill: none; stroke: #888; stroke-width: 1; opacity: 1;"></line><line transform="translate(0,349)" x2="-5" y2="0" style="fill: none; stroke: #888; stroke-width: 1; opacity: 1;"></line><line transform="translate(0,332)" x2="-5" y2="0" style="fill: none; stroke: #888; stroke-width: 1; opacity: 1;"></line><line transform="translate(0,314)" x2="-5" y2="0" style="fill: none; stroke: #888; stroke-width: 1; opacity: 1;"></line><line transform="translate(0,297)" x2="-5" y2="0" style="fill: none; stroke: #888; stroke-width: 1; opacity: 1;"></line><line transform="translate(0,279)" x2="-5" y2="0" style="fill: none; stroke: #888; stroke-width: 1; opacity: 1;"></line><line transform="translate(0,262)" x2="-5" y2="0" style="fill: none; stroke: #888; stroke-width: 1; opacity: 1;"></line><line transform="translate(0,244)" x2="-5" y2="0" style="fill: none; stroke: #888; stroke-width: 1; opacity: 1;"></line><line transform="translate(0,227)" x2="-5" y2="0" style="fill: none; stroke: #888; stroke-width: 1; opacity: 1;"></line><line transform="translate(0,209)" x2="-5" y2="0" style="fill: none; stroke: #888; stroke-width: 1; opacity: 1;"></line><line transform="translate(0,192)" x2="-5" y2="0" style="fill: none; stroke: #888; stroke-width: 1; opacity: 1;"></line><line transform="translate(0,175)" x2="-5" y2="0" style="fill: none; stroke: #888; stroke-width: 1; opacity: 1;"></line><line transform="translate(0,157)" x2="-5" y2="0" style="fill: none; stroke: #888; stroke-width: 1; opacity: 1;"></line><line transform="translate(0,140)" x2="-5" y2="0" style="fill: none; stroke: #888; stroke-width: 1; opacity: 1;"></line><line transform="translate(0,122)" x2="-5" y2="0" style="fill: none; stroke: #888; stroke-width: 1; opacity: 1;"></line><line transform="translate(0,105)" x2="-5" y2="0" style="fill: none; stroke: #888; stroke-width: 1; opacity: 1;"></line><line transform="translate(0,87)" x2="-5" y2="0" style="fill: none; stroke: #888; stroke-width: 1; opacity: 1;"></line><line transform="translate(0,70)" x2="-5" y2="0" style="fill: none; stroke: #888; stroke-width: 1; opacity: 1;"></line><line transform="translate(0,52)" x2="-5" y2="0" style="fill: none; stroke: #888; stroke-width: 1; opacity: 1;"></line><line transform="translate(0,35)" x2="-5" y2="0" style="fill: none; stroke: #888; stroke-width: 1; opacity: 1;"></line><line transform="translate(0,17)" x2="-5" y2="0" style="fill: none; stroke: #888; stroke-width: 1; opacity: 1;"></line><line transform="translate(0,0)" x2="-5" y2="0" style="fill: none; stroke: #888; stroke-width: 1; opacity: 1;"></line></g><g class="mark-text role-axis-label" style="pointer-events: none;"><text text-anchor="end" transform="translate(-7,386)" style="font-family: Georgia; font-size: 8px; fill: #000; opacity: 1;">0</text><text text-anchor="end" transform="translate(-7,368.54545454545456)" style="font-family: Georgia; font-size: 8px; fill: #000; opacity: 1;">50</text><text text-anchor="end" transform="translate(-7,351.09090909090907)" style="font-family: Georgia; font-size: 8px; fill: #000; opacity: 1;">100</text><text text-anchor="end" transform="translate(-7,333.6363636363636)" style="font-family: Georgia; font-size: 8px; fill: #000; opacity: 1;">150</text><text text-anchor="end" transform="translate(-7,316.18181818181813)" style="font-family: Georgia; font-size: 8px; fill: #000; opacity: 1;">200</text><text text-anchor="end" transform="translate(-7,298.72727272727275)" style="font-family: Georgia; font-size: 8px; fill: #000; opacity: 1;">250</text><text text-anchor="end" transform="translate(-7,281.27272727272725)" style="font-family: Georgia; font-size: 8px; fill: #000; opacity: 1;">300</text><text text-anchor="end" transform="translate(-7,263.81818181818187)" style="font-family: Georgia; font-size: 8px; fill: #000; opacity: 1;">350</text><text text-anchor="end" transform="translate(-7,246.36363636363637)" style="font-family: Georgia; font-size: 8px; fill: #000; opacity: 1;">400</text><text text-anchor="end" transform="translate(-7,228.90909090909088)" style="font-family: Georgia; font-size: 8px; fill: #000; opacity: 1;">450</text><text text-anchor="end" transform="translate(-7,211.45454545454544)" style="font-family: Georgia; font-size: 8px; fill: #000; opacity: 1;">500</text><text text-anchor="end" transform="translate(-7,194)" style="font-family: Georgia; font-size: 8px; fill: #000; opacity: 1;">550</text><text text-anchor="end" transform="translate(-7,176.54545454545456)" style="font-family: Georgia; font-size: 8px; fill: #000; opacity: 1;">600</text><text text-anchor="end" transform="translate(-7,159.09090909090907)" style="font-family: Georgia; font-size: 8px; fill: #000; opacity: 1;">650</text><text text-anchor="end" transform="translate(-7,141.63636363636363)" style="font-family: Georgia; font-size: 8px; fill: #000; opacity: 1;">700</text><text text-anchor="end" transform="translate(-7,124.1818181818182)" style="font-family: Georgia; font-size: 8px; fill: #000; opacity: 1;">750</text><text text-anchor="end" transform="translate(-7,106.72727272727272)" style="font-family: Georgia; font-size: 8px; fill: #000; opacity: 1;">800</text><text text-anchor="end" transform="translate(-7,89.27272727272728)" style="font-family: Georgia; font-size: 8px; fill: #000; opacity: 1;">850</text><text text-anchor="end" transform="translate(-7,71.8181818181818)" style="font-family: Georgia; font-size: 8px; fill: #000; opacity: 1;">900</text><text text-anchor="end" transform="translate(-7,54.36363636363636)" style="font-family: Georgia; font-size: 8px; fill: #000; opacity: 1;">950</text><text text-anchor="end" transform="translate(-7,36.90909090909092)" style="font-family: Georgia; font-size: 8px; fill: #000; opacity: 1;">1,000</text><text text-anchor="end" transform="translate(-7,19.45454545454544)" style="font-family: Georgia; font-size: 8px; fill: #000; opacity: 1;">1,050</text><text text-anchor="end" transform="translate(-7,2)" style="font-family: Georgia; font-size: 8px; fill: #000; opacity: 1;">1,100</text></g><g class="mark-rule role-axis-domain" style="pointer-events: none;"><line transform="translate(0,384)" x2="0" y2="-384" style="fill: none; stroke: #888; stroke-width: 1; opacity: 1;"></line></g></g><path class="foreground" d="" style="pointer-events: none; display: none; fill: none;"></path></g></g><g class="mark-group role-scope pathgroup"><g transform="translate(0,0)"><path class="background" d="M0,0h479v384h-479Z" style="fill: none;"></path><g><g class="mark-area role-mark marks"><path d="M0,198.6327272727273L25.20762003573693,222.02181818181816L50.41524007147386,135.44727272727275L75.6228601072108,33.861818181818165L100.83048014294772,70.51636363636362L126.05190500893424,188.85818181818183L151.25952504467116,134.0509090909091L176.4671450804081,53.41090909090907L201.67476511614504,148.36363636363637L226.89618998213155,124.62545454545456L252.10381001786848,153.9490909090909L277.31143005360536,204.91636363636366L302.51905008934233,187.46181818181816L327.74047495532886,212.94545454545454L352.9480949910658,63.18545454545455L378.15571502680274,112.05818181818184L403.36333506253965,197.93454545454543L428.5847599285261,110.66181818181819L453.7923799642631,81.68727272727274L479,247.50545454545454L479,286.6036363636364L453.7923799642631,164.4218181818182L428.5847599285261,204.2181818181818L403.36333506253965,237.03272727272724L378.15571502680274,156.39272727272726L352.9480949910658,162.67636363636362L327.74047495532886,254.13818181818183L302.51905008934233,271.24363636363637L277.31143005360536,261.81818181818187L252.10381001786848,179.08363636363634L226.89618998213155,196.18909090909094L201.67476511614504,191.65090909090912L176.4671450804081,122.53090909090909L151.25952504467116,235.63636363636363L126.05190500893424,219.92727272727274L100.83048014294772,130.56L75.6228601072108,127.41818181818181L50.41524007147386,175.59272727272727L25.20762003573693,275.7818181818182L0,223.4181818181818Z" style="fill: #9e5d68; fill-opacity: 0.5303535026501437; stroke: none; stroke-width: 0.40219652294793695;"></path></g></g><path class="foreground" d="" style="display: none; fill: none;"></path></g><g transform="translate(0,0)"><path class="background" d="M0,0h479v384h-479Z" style="fill: none;"></path><g><g class="mark-area role-mark marks"><path d="M0,223.4181818181818L25.20762003573693,275.7818181818182L50.41524007147386,175.59272727272727L75.6228601072108,127.41818181818181L100.83048014294772,130.56L126.05190500893424,219.92727272727274L151.25952504467116,235.63636363636363L176.4671450804081,122.53090909090909L201.67476511614504,191.65090909090912L226.89618998213155,196.18909090909094L252.10381001786848,179.08363636363634L277.31143005360536,261.81818181818187L302.51905008934233,271.24363636363637L327.74047495532886,254.13818181818183L352.9480949910658,162.67636363636362L378.15571502680274,156.39272727272726L403.36333506253965,237.03272727272724L428.5847599285261,204.2181818181818L453.7923799642631,164.4218181818182L479,286.6036363636364L479,333.3818181818182L453.7923799642631,233.8909090909091L428.5847599285261,292.53818181818184L403.36333506253965,271.24363636363637L378.15571502680274,231.79636363636365L352.9480949910658,264.26181818181817L327.74047495532886,290.44363636363636L302.51905008934233,304.75636363636363L277.31143005360536,327.4472727272728L252.10381001786848,276.1309090909091L226.89618998213155,297.0763636363637L201.67476511614504,242.61818181818182L176.4671450804081,215.3890909090909L151.25952504467116,255.53454545454548L126.05190500893424,240.87272727272725L100.83048014294772,217.83272727272725L75.6228601072108,221.32363636363638L50.41524007147386,276.1309090909091L25.20762003573693,307.20000000000005L0,288Z" style="fill: #e29782; fill-opacity: 0.5303535026501437; stroke: none; stroke-width: 0.40219652294793695;"></path></g></g><path class="foreground" d="" style="display: none; fill: none;"></path></g><g transform="translate(0,0)"><path class="background" d="M0,0h479v384h-479Z" style="fill: none;"></path><g><g class="mark-area role-mark marks"><path d="M0,288L25.20762003573693,307.20000000000005L50.41524007147386,276.1309090909091L75.6228601072108,221.32363636363638L100.83048014294772,217.83272727272725L126.05190500893424,240.87272727272725L151.25952504467116,255.53454545454548L176.4671450804081,215.3890909090909L201.67476511614504,242.61818181818182L226.89618998213155,297.0763636363637L252.10381001786848,276.1309090909091L277.31143005360536,327.4472727272728L302.51905008934233,304.75636363636363L327.74047495532886,290.44363636363636L352.9480949910658,264.26181818181817L378.15571502680274,231.79636363636365L403.36333506253965,271.24363636363637L428.5847599285261,292.53818181818184L453.7923799642631,233.8909090909091L479,333.3818181818182L479,361.6581818181818L453.7923799642631,294.63272727272727L428.5847599285261,317.3236363636364L403.36333506253965,357.12L378.15571502680274,288.34909090909093L352.9480949910658,334.08L327.74047495532886,350.8363636363636L302.51905008934233,333.3818181818182L277.31143005360536,346.99636363636364L252.10381001786848,311.3890909090909L226.89618998213155,352.9309090909091L201.67476511614504,296.0290909090909L176.4671450804081,291.14181818181817L151.25952504467116,307.8981818181818L126.05190500893424,316.2763636363636L100.83048014294772,281.71636363636367L75.6228601072108,293.23636363636365L50.41524007147386,337.57090909090914L25.20762003573693,355.37454545454545L0,350.8363636363636Z" style="fill: #eda64a; fill-opacity: 0.5303535026501437; stroke: none; stroke-width: 0.40219652294793695;"></path></g></g><path class="foreground" d="" style="display: none; fill: none;"></path></g><g transform="translate(0,0)"><path class="background" d="M0,0h479v384h-479Z" style="fill: none;"></path><g><g class="mark-area role-mark marks"><path d="M0,350.8363636363636L25.20762003573693,355.37454545454545L50.41524007147386,337.57090909090914L75.6228601072108,293.23636363636365L100.83048014294772,281.71636363636367L126.05190500893424,316.2763636363636L151.25952504467116,307.8981818181818L176.4671450804081,291.14181818181817L201.67476511614504,296.0290909090909L226.89618998213155,352.9309090909091L252.10381001786848,311.3890909090909L277.31143005360536,346.99636363636364L302.51905008934233,333.3818181818182L327.74047495532886,350.8363636363636L352.9480949910658,334.08L378.15571502680274,288.34909090909093L403.36333506253965,357.12L428.5847599285261,317.3236363636364L453.7923799642631,294.63272727272727L479,361.6581818181818L479,384L453.7923799642631,384L428.5847599285261,384L403.36333506253965,384L378.15571502680274,384L352.9480949910658,384L327.74047495532886,384L302.51905008934233,384L277.31143005360536,384L252.10381001786848,384L226.89618998213155,384L201.67476511614504,384L176.4671450804081,384L151.25952504467116,384L126.05190500893424,384L100.83048014294772,384L75.6228601072108,384L50.41524007147386,384L25.20762003573693,384L0,384Z" style="fill: #f7cf56; fill-opacity: 0.5303535026501437; stroke: none; stroke-width: 0.40219652294793695;"></path></g></g><path class="foreground" d="" style="display: none; fill: none;"></path></g></g><g class="mark-group role-legend"><g transform="translate(498,0)"><path class="background" d="M0,0h14v30h-14Z" style="pointer-events: none; fill: none;"></path><g><g class="mark-group role-legend-entry"><g transform="translate(0,0)"><path class="background" d="M0,0h0v0h0Z" style="pointer-events: none; fill: none;"></path><g><g class="mark-group role-scope"><g transform="translate(0,0)"><path class="background" d="M0,0h14v5.402196522947937h-14Z" style="pointer-events: none; fill: none; opacity: 1;"></path><g><g class="mark-symbol role-legend-symbol" style="pointer-events: none;"><path transform="translate(5,5)" d="M0,0" style="fill: #9e5d68; fill-opacity: 0.5303535026501437; stroke: none; stroke-width: 0.40219652294793695; opacity: 1;"></path></g><g class="mark-text role-legend-label" style="pointer-events: none;"><text text-anchor="start" transform="translate(14,5)" style="font-family: sans-serif; font-size: 0px; fill: #000; opacity: 1;">0</text></g></g><path class="foreground" d="" style="pointer-events: none; display: none; fill: none;"></path></g><g transform="translate(0,8)"><path class="background" d="M0,0h14v5.402196522947937h-14Z" style="pointer-events: none; fill: none; opacity: 1;"></path><g><g class="mark-symbol role-legend-symbol" style="pointer-events: none;"><path transform="translate(5,5)" d="M0,0" style="fill: #e29782; fill-opacity: 0.5303535026501437; stroke: none; stroke-width: 0.40219652294793695; opacity: 1;"></path></g><g class="mark-text role-legend-label" style="pointer-events: none;"><text text-anchor="start" transform="translate(14,5)" style="font-family: sans-serif; font-size: 0px; fill: #000; opacity: 1;">1</text></g></g><path class="foreground" d="" style="pointer-events: none; display: none; fill: none;"></path></g><g transform="translate(0,16)"><path class="background" d="M0,0h14v5.402196522947939h-14Z" style="pointer-events: none; fill: none; opacity: 1;"></path><g><g class="mark-symbol role-legend-symbol" style="pointer-events: none;"><path transform="translate(5,5)" d="M0,0" style="fill: #eda64a; fill-opacity: 0.5303535026501437; stroke: none; stroke-width: 0.40219652294793695; opacity: 1;"></path></g><g class="mark-text role-legend-label" style="pointer-events: none;"><text text-anchor="start" transform="translate(14,5)" style="font-family: sans-serif; font-size: 0px; fill: #000; opacity: 1;">2</text></g></g><path class="foreground" d="" style="pointer-events: none; display: none; fill: none;"></path></g><g transform="translate(0,24)"><path class="background" d="M0,0h14v5.402196522947939h-14Z" style="pointer-events: none; fill: none; opacity: 1;"></path><g><g class="mark-symbol role-legend-symbol" style="pointer-events: none;"><path transform="translate(5,5)" d="M0,0" style="fill: #f7cf56; fill-opacity: 0.5303535026501437; stroke: none; stroke-width: 0.40219652294793695; opacity: 1;"></path></g><g class="mark-text role-legend-label" style="pointer-events: none;"><text text-anchor="start" transform="translate(14,5)" style="font-family: sans-serif; font-size: 0px; fill: #000; opacity: 1;">3</text></g></g><path class="foreground" d="" style="pointer-events: none; display: none; fill: none;"></path></g></g></g><path class="foreground" d="" style="pointer-events: none; display: none; fill: none;"></path></g></g></g><path class="foreground" d="" style="pointer-events: none; display: none; fill: none;"></path></g></g><g class="mark-group role-title"><g transform="translate(239.5,-24)"><path class="background" d="M0,0h0v0h0Z" style="pointer-events: none; fill: none;"></path><g><g class="mark-text role-title-text" style="pointer-events: none;"><text text-anchor="middle" transform="translate(0,9)" style="font-family: Arial Unicode MS; font-size: 12px; font-style: normal; font-weight: bold; fill: #000000; opacity: 1;">APPLICANTS HEMS</text></g></g><path class="foreground" d="" style="pointer-events: none; display: none; fill: none;"></path></g></g></g><path class="foreground" d="" style="display: none; fill: none;"></path></g></g></g></svg>